<?xml version="1.0" encoding="UTF-8" standalone="no"?>
<!DOCTYPE svg PUBLIC "-//W3C//DTD SVG 1.1//EN" "http://www.w3.org/Graphics/SVG/1.1/DTD/svg11.dtd">
<!-- Generated by Microsoft Visio, SVG Export mitm2.svg Page-2 -->
<svg xmlns="http://www.w3.org/2000/svg" xmlns:xlink="http://www.w3.org/1999/xlink" xmlns:ev="http://www.w3.org/2001/xml-events"
		xmlns:v="http://schemas.microsoft.com/visio/2003/SVGExtensions/" width="7.51956in" height="2.34759in"
		viewBox="0 0 541.408 169.026" xml:space="preserve" color-interpolation-filters="sRGB" class="st26">
	<v:documentProperties v:langID="1033" v:metric="true" v:viewMarkup="false">
		<v:userDefs>
			<v:ud v:nameU="msvNoAutoConnect" v:val="VT0(1):26"/>
		</v:userDefs>
	</v:documentProperties>

	<style type="text/css">
	<![CDATA[
		.st1 {fill:#ff00ff;fill-opacity:0;stroke:#000000;stroke-linecap:round;stroke-linejoin:round;stroke-opacity:0;stroke-width:0.72}
		.st2 {fill:url(#grad0-8)}
		.st3 {stroke:#ffffff;stroke-linecap:round;stroke-linejoin:round;stroke-width:0.36}
		.st4 {fill:url(#grad11-13)}
		.st5 {stroke:#a78450;stroke-linecap:round;stroke-linejoin:round;stroke-width:0.36}
		.st6 {fill:url(#grad12-20);stroke:#ffffff;stroke-linecap:round;stroke-linejoin:round;stroke-width:0.36}
		.st7 {stroke:#000000;stroke-linecap:round;stroke-linejoin:round;stroke-width:1.5}
		.st8 {fill:url(#grad12-29);stroke:#000000;stroke-linecap:round;stroke-linejoin:round;stroke-width:0.36}
		.st9 {stroke:#000000;stroke-linecap:round;stroke-linejoin:round;stroke-width:0.6}
		.st10 {fill:#000000;stroke:#000000;stroke-linecap:round;stroke-linejoin:round;stroke-width:0.36}
		.st11 {fill:url(#grad8-45);stroke:#ffffff;stroke-linecap:round;stroke-linejoin:round;stroke-width:0.12}
		.st12 {fill:url(#grad10-50);stroke:none;stroke-linecap:round;stroke-linejoin:round;stroke-width:0.12}
		.st13 {fill:#000000;stroke:none;stroke-linecap:round;stroke-linejoin:round;stroke-width:0.24}
		.st14 {stroke:#000000;stroke-linecap:round;stroke-linejoin:round;stroke-width:0.36}
		.st15 {fill:#000000;font-family:Calibri;font-size:1.00001em}
		.st16 {font-size:1em}
		.st17 {fill:#ff00ff;fill-opacity:0}
		.st18 {stroke:#000000;stroke-linecap:round;stroke-linejoin:round;stroke-opacity:0;stroke-width:0.72}
		.st19 {fill:url(#grad3-120)}
		.st20 {stroke:#373773;stroke-linecap:round;stroke-linejoin:round;stroke-width:0.72}
		.st21 {fill:url(#grad3-120);stroke:#555555;stroke-linecap:round;stroke-linejoin:round;stroke-width:0.72}
		.st22 {stroke:#555555;stroke-linecap:round;stroke-linejoin:round;stroke-width:0.72}
		.st23 {stroke:#000000;stroke-linecap:round;stroke-linejoin:round;stroke-width:2}
		.st24 {fill:#ffffff;stroke:#000000;stroke-linecap:round;stroke-linejoin:round;stroke-width:0.24}
		.st25 {fill:#000000;font-family:Calibri;font-size:0.833336em}
		.st26 {fill:none;fill-rule:evenodd;font-size:12px;overflow:visible;stroke-linecap:square;stroke-miterlimit:3}
	]]>
	</style>

	<defs id="Patterns_And_Gradients">
		<linearGradient id="grad0-8" x1="0" y1="0" x2="1" y2="0" gradientTransform="rotate(270 0.5 0.5)">
			<stop offset="0" stop-color="#ffffff" stop-opacity="1"/>
			<stop offset="1" stop-color="#e1d8c1" stop-opacity="1"/>
		</linearGradient>
		<pattern id="grad11-13" x="0" y="0" width="1" height="1" patternContentUnits="objectBoundingBox">
			<path d="M 0 1 L 0 0 L 1 0 z" style="fill:url(#grad0-14)"/>
			<path d="M 0 1 L 1 1 L 1 0 z" style="fill:url(#grad0-15)"/>
		</pattern>
		<linearGradient id="grad0-14" x1="0" y1="0" x2="1" y2="0" gradientTransform="rotate(180 0.5 0.5)">
			<stop offset="0" stop-color="#ffffff" stop-opacity="1"/>
			<stop offset="1" stop-color="#c9ba96" stop-opacity="1"/>
		</linearGradient>
		<linearGradient id="grad0-15" x1="0" y1="0" x2="1" y2="0" gradientTransform="rotate(90 0.5 0.5)">
			<stop offset="0" stop-color="#ffffff" stop-opacity="1"/>
			<stop offset="1" stop-color="#c9ba96" stop-opacity="1"/>
		</linearGradient>
		<pattern id="grad12-20" x="0" y="0" width="1" height="1" patternContentUnits="objectBoundingBox">
			<path d="M 0 0 L 0 1 L 1 1 z" style="fill:url(#grad0-21)"/>
			<path d="M 0 0 L 1 0 L 1 1 z" style="fill:url(#grad0-22)"/>
		</pattern>
		<linearGradient id="grad0-21" x1="0" y1="0" x2="1" y2="0" gradientTransform="rotate(90 0.5 0.5)">
			<stop offset="0" stop-color="#ffffff" stop-opacity="1"/>
			<stop offset="1" stop-color="#b6a06d" stop-opacity="1"/>
		</linearGradient>
		<linearGradient id="grad0-22" x1="0" y1="0" x2="1" y2="0" gradientTransform="rotate(360 0.5 0.5)">
			<stop offset="0" stop-color="#ffffff" stop-opacity="1"/>
			<stop offset="1" stop-color="#b6a06d" stop-opacity="1"/>
		</linearGradient>
		<pattern id="grad12-29" x="0" y="0" width="1" height="1" patternContentUnits="objectBoundingBox">
			<path d="M 0 0 L 0 1 L 1 1 z" style="fill:url(#grad0-30)"/>
			<path d="M 0 0 L 1 0 L 1 1 z" style="fill:url(#grad0-31)"/>
		</pattern>
		<linearGradient id="grad0-30" x1="0" y1="0" x2="1" y2="0" gradientTransform="rotate(90 0.5 0.5)">
			<stop offset="0" stop-color="#ffffff" stop-opacity="1"/>
			<stop offset="1" stop-color="#339966" stop-opacity="1"/>
		</linearGradient>
		<linearGradient id="grad0-31" x1="0" y1="0" x2="1" y2="0" gradientTransform="rotate(360 0.5 0.5)">
			<stop offset="0" stop-color="#ffffff" stop-opacity="1"/>
			<stop offset="1" stop-color="#339966" stop-opacity="1"/>
		</linearGradient>
		<linearGradient id="grad0-35" x1="0" y1="0" x2="1" y2="0" gradientTransform="rotate(270 0.5 0.5)">
			<stop offset="0" stop-color="#ffffff" stop-opacity="1"/>
			<stop offset="1" stop-color="#e7e4cd" stop-opacity="1"/>
		</linearGradient>
		<pattern id="grad8-45" x="0" y="0" width="1" height="1" patternContentUnits="objectBoundingBox">
			<path d="M 0 0 L 1 0 L 1 1 z" style="fill:url(#grad0-35)"/>
			<path d="M 0 0 L 0 1 L 1 1 z" style="fill:url(#grad0-46)"/>
		</pattern>
		<linearGradient id="grad0-46" x1="0" y1="0" x2="1" y2="0" gradientTransform="rotate(180 0.5 0.5)">
			<stop offset="0" stop-color="#ffffff" stop-opacity="1"/>
			<stop offset="1" stop-color="#e7e4cd" stop-opacity="1"/>
		</linearGradient>
		<pattern id="grad10-50" x="0" y="0" width="1" height="1" patternContentUnits="objectBoundingBox">
			<path d="M 0.5 0.5 L 0 0 L 0 1 z" style="fill:url(#grad0-51)"/>
			<path d="M 0.5 0.5 L 1 0 L 1 1 z" style="fill:url(#grad0-52)"/>
			<path d="M 0.5 0.5 L 0 0 L 1 0 z" style="fill:url(#grad0-53)"/>
			<path d="M 0.5 0.5 L 0 1 L 1 1 z" style="fill:url(#grad0-54)"/>
		</pattern>
		<linearGradient id="grad0-51" x1="0" y1="0" x2="1" y2="0" gradientTransform="rotate(180 0.5 0.5)">
			<stop offset="0" stop-color="#000000" stop-opacity="0.4"/>
			<stop offset="1" stop-color="#e7e4cd" stop-opacity="0.4"/>
		</linearGradient>
		<linearGradient id="grad0-52" x1="0" y1="0" x2="1" y2="0" gradientTransform="rotate(360 0.5 0.5)">
			<stop offset="0" stop-color="#000000" stop-opacity="0.4"/>
			<stop offset="1" stop-color="#e7e4cd" stop-opacity="0.4"/>
		</linearGradient>
		<linearGradient id="grad0-53" x1="0" y1="0" x2="1" y2="0" gradientTransform="rotate(270 0.5 0.5)">
			<stop offset="0" stop-color="#000000" stop-opacity="0.4"/>
			<stop offset="1" stop-color="#e7e4cd" stop-opacity="0.4"/>
		</linearGradient>
		<linearGradient id="grad0-54" x1="0" y1="0" x2="1" y2="0" gradientTransform="rotate(90 0.5 0.5)">
			<stop offset="0" stop-color="#000000" stop-opacity="0.4"/>
			<stop offset="1" stop-color="#e7e4cd" stop-opacity="0.4"/>
		</linearGradient>
		<radialGradient id="grad3-120" cx="0.5" cy="0.5" r="0.73">
			<stop offset="0" stop-color="#c6d1e3" stop-opacity="1"/>
			<stop offset="1" stop-color="#4e8ec2" stop-opacity="1"/>
		</radialGradient>
	</defs>
	<g v:mID="4" v:index="2" v:groupContext="foregroundPage">
		<title>Page-2</title>
		<v:pageProperties v:drawingScale="0.0393701" v:pageScale="0.0393701" v:drawingUnits="24" v:shadowOffsetX="8.50394"
				v:shadowOffsetY="-8.50394"/>
		<g id="group43-1" transform="translate(22.969,-54.8038)" v:mID="43" v:groupContext="group">
			<title>Sheet.43</title>
			<g id="group1-2" transform="translate(425.197,0)" v:mID="1" v:groupContext="group">
				<v:custProps>
					<v:cp v:nameU="Manufacturer" v:lbl="Manufacturer" v:type="0" v:sortKey="Equipment" v:invis="false"
							v:ask="false" v:langID="1033"/>
					<v:cp v:nameU="ProductNumber" v:lbl="Product Number" v:type="0" v:sortKey="Equipment" v:invis="false"
							v:ask="false" v:langID="1033"/>
					<v:cp v:nameU="PartNumber" v:lbl="Part Number" v:type="0" v:sortKey="Equipment" v:invis="false" v:ask="false"
							v:langID="1033"/>
					<v:cp v:nameU="ProductDescription" v:lbl="Product Description" v:type="0" v:sortKey="Equipment" v:invis="false"
							v:ask="false" v:langID="1033"/>
					<v:cp v:nameU="AssetNumber" v:lbl="Asset Number" v:type="0" v:sortKey="Asset" v:invis="false" v:ask="false"
							v:langID="1033"/>
					<v:cp v:nameU="SerialNumber" v:lbl="Serial Number" v:type="0" v:sortKey="Asset" v:invis="false" v:ask="false"
							v:langID="1033"/>
					<v:cp v:nameU="Location" v:lbl="Location" v:type="0" v:sortKey="Asset" v:invis="false" v:ask="false"
							v:langID="1033"/>
					<v:cp v:nameU="Building" v:lbl="Building" v:type="0" v:sortKey="Asset" v:invis="false" v:ask="false"
							v:langID="1033"/>
					<v:cp v:nameU="Room" v:lbl="Room" v:type="0" v:sortKey="Asset" v:invis="false" v:ask="false" v:langID="1033"/>
					<v:cp v:nameU="Department" v:lbl="Department" v:type="0" v:invis="false" v:ask="false" v:langID="1033"/>
					<v:cp v:nameU="NetworkName" v:lbl="Network Name" v:type="0" v:sortKey="Network" v:invis="false" v:ask="false"
							v:langID="1033"/>
					<v:cp v:nameU="IPAddress" v:lbl="IP Address" v:type="0" v:sortKey="Network" v:invis="false" v:ask="false"
							v:langID="1033"/>
					<v:cp v:nameU="SubnetMask" v:lbl="Subnet Mask" v:type="0" v:sortKey="Network" v:invis="false" v:ask="false"
							v:langID="1033"/>
					<v:cp v:nameU="AdminInterface" v:lbl="Administrative Interface" v:type="0" v:sortKey="Network" v:invis="false"
							v:ask="false" v:langID="1033"/>
					<v:cp v:nameU="NumberofPorts" v:lbl="Number of Ports" v:type="0" v:sortKey="Network" v:invis="false"
							v:ask="false" v:langID="1033"/>
					<v:cp v:nameU="CommunityString" v:lbl="Community String" v:type="0" v:sortKey="Network" v:invis="false"
							v:ask="false" v:langID="1033"/>
					<v:cp v:nameU="NetworkDescription" v:lbl="Network Description" v:type="0" v:sortKey="Network" v:invis="false"
							v:ask="false" v:langID="1033"/>
					<v:cp v:nameU="CPU" v:lbl="CPU" v:type="0" v:sortKey="Workstation" v:invis="false" v:ask="false"
							v:langID="1033"/>
					<v:cp v:nameU="Memory" v:lbl="Memory" v:type="0" v:sortKey="Workstation" v:invis="false" v:ask="false"
							v:langID="1033"/>
					<v:cp v:nameU="OperatingSystem" v:lbl="Operating System" v:type="0" v:sortKey="Workstation" v:invis="false"
							v:ask="false" v:langID="1033"/>
					<v:cp v:nameU="BelongsTo" v:lbl="Belongs To" v:type="0" v:invis="true" v:ask="false" v:langID="1033"/>
					<v:cp v:nameU="ShapeClass" v:lbl="ShapeClass" v:type="0" v:invis="true" v:ask="false" v:langID="1033"
							v:val="VT4(Equipment)"/>
					<v:cp v:nameU="ShapeType" v:lbl="ShapeType" v:type="0" v:invis="true" v:ask="false" v:langID="1033"
							v:val="VT4(Server)"/>
					<v:cp v:nameU="MACAddress" v:lbl="MAC Address" v:type="0" v:sortKey="Network" v:invis="false" v:ask="false"
							v:langID="1033"/>
					<v:cp v:nameU="HardDriveSize" v:lbl="Hard Drive Capacity" v:type="0" v:sortKey="Workstation" v:invis="false"
							v:ask="false" v:langID="1033"/>
				</v:custProps>
				<v:userDefs>
					<v:ud v:nameU="HasText" v:val="VT0(0):5"/>
					<v:ud v:nameU="ShapeClass" v:val="VT0(5):26"/>
					<v:ud v:nameU="ShapeType" v:val="VT0(24):26"/>
					<v:ud v:nameU="SolSH" v:val="VT15({BF0433D9-CD73-4EB5-8390-8653BE590246}):41"/>
					<v:ud v:nameU="visLegendShape" v:val="VT0(2):26"/>
					<v:ud v:nameU="visVersion" v:prompt="" v:val="VT0(15):26"/>
					<v:ud v:nameU="HasText" v:prompt="" v:val="VT0(1):5"/>
				</v:userDefs>
				<title>Server</title>
				<desc>Website (http)</desc>
				<g id="shape2-3" v:mID="2" v:groupContext="shape">
					<title>Sheet.2</title>
					<path d="M68.74 87.71 L42.3 73.56 L0 96.6 L0.02 155.79 A44.508 41.5646 -180 0 0 26.1 169.03 L68.74 145.98 L68.74
								 87.71 ZM11.74 105.82 A45.9332 42.8955 -180 0 0 26.1 110.92 A45.4202 42.4164 0 0 1 11.74 105.82 Z"
							class="st1"/>
				</g>
				<g id="shape3-5" v:mID="3" v:groupContext="shape" transform="translate(0,-58.105)">
					<title>Sheet.3</title>
					<path d="M26.09 169.03 L68.74 145.82 L42.3 131.66 L0 154.7 A45.9332 42.8955 -180 0 0 26.1 169.03 L26.09 169.03
								 Z" class="st2"/>
					<path d="M26.09 169.03 L68.74 145.82 L42.3 131.66 L0 154.7 A45.9332 42.8955 -180 0 0 26.1 169.03" class="st3"/>
				</g>
				<g id="shape4-10" v:mID="4" v:groupContext="shape" transform="translate(0.0156193,-4.83169E-013)">
					<title>Sheet.4</title>
					<path d="M26.09 110.92 A45.4202 42.4164 0 0 1 0 96.53 L0 155.79 A44.508 41.5646 -180 0 0 26.09 169.03 L26.07
								 110.92 L26.09 110.92 Z" class="st4"/>
					<path d="M26.09 110.92 A45.4202 42.4164 0 0 1 0 96.53 L0 155.79 A44.508 41.5646 -180 0 0 26.09 169.03 L26.07
								 110.92" class="st5"/>
				</g>
				<g id="shape5-17" v:mID="5" v:groupContext="shape" transform="translate(26.086,-0.0656713)">
					<title>Sheet.5</title>
					<path d="M0 110.99 L0 169.03 L42.65 146.05 L42.65 87.78 L0 110.99 Z" class="st6"/>
				</g>
				<g id="shape6-23" v:mID="6" v:groupContext="shape" transform="translate(0,-0.00210454)">
					<title>Sheet.6</title>
					<path d="M68.74 87.71 L42.3 73.56 L0 96.6 L0.02 155.79 A44.508 41.5646 -180 0 0 26.1 169.03 L68.74 145.98 L68.74
								 87.71" class="st7"/>
				</g>
				<g id="shape7-26" v:mID="7" v:groupContext="shape" transform="translate(-46.7531,-20.4978) rotate(-20)">
					<title>Sheet.7</title>
					<ellipse cx="1.99671" cy="166.307" rx="1.99671" ry="2.7189" class="st8"/>
				</g>
				<g id="shape8-32" v:mID="8" v:groupContext="shape" transform="translate(4.23016,-8.39672)">
					<title>Sheet.8</title>
					<path d="M-0 152.9 A50.9526 46.5366 -96.44 0 0 17.63 161.95" class="st9"/>
					<path d="M0 156.43 A50.9526 46.5366 -96.44 0 0 17.63 165.49" class="st9"/>
					<path d="M0 159.97 A50.9526 46.5366 -96.44 0 0 17.63 169.03" class="st9"/>
				</g>
				<g id="group9-39" transform="translate(3.52514,-41.1522)" v:mID="9" v:groupContext="group">
					<title>Sheet.9</title>
					<g id="shape10-40" v:mID="10" v:groupContext="shape" transform="translate(0,-9.52433)">
						<title>Sheet.10</title>
						<path d="M0.63 159.97 A44.4558 41.5158 -180 0 0 18.25 169.03 a0.903316 0.843577 -180 0 0 3.55271E-015 -1.646
									 A43.2463 40.3863 0 0 1 0.98 158.59 a0.585216 0.546513 -180 0 0 -0.977009 0.464601 A1.27545 1.1911
									 -180 0 0 0.63 159.97 Z" class="st10"/>
					</g>
					<g id="shape11-42" v:mID="11" v:groupContext="shape" transform="translate(5.60554,-11.5991)">
						<title>Sheet.11</title>
						<path d="M5.42 168.96 A6.60555 4.0212 -90.9 0 0 0.13 166.33 A4.34612 2.16683 -180 0 0 5.42 168.96 Z"
								class="st11"/>
					</g>
					<g id="shape12-47" v:mID="12" v:groupContext="shape" transform="translate(0.705027,-0.0823002)">
						<title>Sheet.12</title>
						<path d="M0 155.36 L0 159.97 A47.821 44.6584 -180 0 0 17.63 169.03 L17.63 164.42 A49.3861 46.12 0 0 1 0 155.36
									 Z" class="st12"/>
					</g>
					<g id="shape13-55" v:mID="13" v:groupContext="shape" transform="translate(0.705027,-2.63361)">
						<title>Sheet.13</title>
						<path d="M-0 159.97 A43.2834 40.4209 -180 0 0 17.63 169.03 L17.63 167.87 A47.8402 44.6764 0 0 1 -0 158.82
									 L0 159.97 Z" class="st13"/>
					</g>
					<g id="shape14-57" v:mID="14" v:groupContext="shape" transform="translate(0.705027,-0.1646)">
						<title>Sheet.14</title>
						<path d="M0 155.36 L0 159.97 A47.821 44.6584 -180 0 0 17.63 169.03" class="st3"/>
					</g>
					<g id="shape15-60" v:mID="15" v:groupContext="shape" transform="translate(0.705027,8.52651E-014)">
						<title>Sheet.15</title>
						<path d="M17.63 169.03 L17.63 164.42 A49.3861 46.12 0 0 1 0 155.36" class="st14"/>
					</g>
				</g>
				<g id="shape1-64" v:mID="1" v:groupContext="groupContent">
					<v:textBlock v:margins="rect(4,4,4,4)" v:tabSpace="42.5197"/>
					<v:textRect cx="34.3701" cy="180.228" width="81.75" height="22.4037"/>
					<text x="-1.14" y="183.83" class="st15" v:langID="1033"><v:paragraph v:horizAlign="1"/><v:tabList/>Website (http)</text>				</g>
			</g>
			<g id="group16-66" transform="translate(198.425,-1.98952E-013)" v:mID="16" v:groupContext="group">
				<v:custProps>
					<v:cp v:nameU="Manufacturer" v:lbl="Manufacturer" v:type="0" v:sortKey="Equipment" v:invis="false"
							v:ask="false" v:langID="1033"/>
					<v:cp v:nameU="ProductNumber" v:lbl="Product Number" v:type="0" v:sortKey="Equipment" v:invis="false"
							v:ask="false" v:langID="1033"/>
					<v:cp v:nameU="PartNumber" v:lbl="Part Number" v:type="0" v:sortKey="Equipment" v:invis="false" v:ask="false"
							v:langID="1033"/>
					<v:cp v:nameU="ProductDescription" v:lbl="Product Description" v:type="0" v:sortKey="Equipment" v:invis="false"
							v:ask="false" v:langID="1033"/>
					<v:cp v:nameU="AssetNumber" v:lbl="Asset Number" v:type="0" v:sortKey="Asset" v:invis="false" v:ask="false"
							v:langID="1033"/>
					<v:cp v:nameU="SerialNumber" v:lbl="Serial Number" v:type="0" v:sortKey="Asset" v:invis="false" v:ask="false"
							v:langID="1033"/>
					<v:cp v:nameU="Location" v:lbl="Location" v:type="0" v:sortKey="Asset" v:invis="false" v:ask="false"
							v:langID="1033"/>
					<v:cp v:nameU="Building" v:lbl="Building" v:type="0" v:sortKey="Asset" v:invis="false" v:ask="false"
							v:langID="1033"/>
					<v:cp v:nameU="Room" v:lbl="Room" v:type="0" v:sortKey="Asset" v:invis="false" v:ask="false" v:langID="1033"/>
					<v:cp v:nameU="Department" v:lbl="Department" v:type="0" v:invis="false" v:ask="false" v:langID="1033"/>
					<v:cp v:nameU="NetworkName" v:lbl="Network Name" v:type="0" v:sortKey="Network" v:invis="false" v:ask="false"
							v:langID="1033"/>
					<v:cp v:nameU="IPAddress" v:lbl="IP Address" v:type="0" v:sortKey="Network" v:invis="false" v:ask="false"
							v:langID="1033"/>
					<v:cp v:nameU="SubnetMask" v:lbl="Subnet Mask" v:type="0" v:sortKey="Network" v:invis="false" v:ask="false"
							v:langID="1033"/>
					<v:cp v:nameU="AdminInterface" v:lbl="Administrative Interface" v:type="0" v:sortKey="Network" v:invis="false"
							v:ask="false" v:langID="1033"/>
					<v:cp v:nameU="NumberofPorts" v:lbl="Number of Ports" v:type="0" v:sortKey="Network" v:invis="false"
							v:ask="false" v:langID="1033"/>
					<v:cp v:nameU="CommunityString" v:lbl="Community String" v:type="0" v:sortKey="Network" v:invis="false"
							v:ask="false" v:langID="1033"/>
					<v:cp v:nameU="NetworkDescription" v:lbl="Network Description" v:type="0" v:sortKey="Network" v:invis="false"
							v:ask="false" v:langID="1033"/>
					<v:cp v:nameU="CPU" v:lbl="CPU" v:type="0" v:sortKey="Workstation" v:invis="false" v:ask="false"
							v:langID="1033"/>
					<v:cp v:nameU="Memory" v:lbl="Memory" v:type="0" v:sortKey="Workstation" v:invis="false" v:ask="false"
							v:langID="1033"/>
					<v:cp v:nameU="OperatingSystem" v:lbl="Operating System" v:type="0" v:sortKey="Workstation" v:invis="false"
							v:ask="false" v:langID="1033"/>
					<v:cp v:nameU="BelongsTo" v:lbl="Belongs To" v:type="0" v:invis="true" v:ask="false" v:langID="1033"/>
					<v:cp v:nameU="ShapeClass" v:lbl="ShapeClass" v:type="0" v:invis="true" v:ask="false" v:langID="1033"
							v:val="VT4(Equipment)"/>
					<v:cp v:nameU="ShapeType" v:lbl="ShapeType" v:type="0" v:invis="true" v:ask="false" v:langID="1033"
							v:val="VT4(Server)"/>
					<v:cp v:nameU="MACAddress" v:lbl="MAC Address" v:type="0" v:sortKey="Network" v:invis="false" v:ask="false"
							v:langID="1033"/>
					<v:cp v:nameU="HardDriveSize" v:lbl="Hard Drive Capacity" v:type="0" v:sortKey="Workstation" v:invis="false"
							v:ask="false" v:langID="1033"/>
				</v:custProps>
				<v:userDefs>
					<v:ud v:nameU="HasText" v:val="VT0(0):5"/>
					<v:ud v:nameU="ShapeClass" v:val="VT0(5):26"/>
					<v:ud v:nameU="ShapeType" v:val="VT0(24):26"/>
					<v:ud v:nameU="SolSH" v:val="VT15({BF0433D9-CD73-4EB5-8390-8653BE590246}):41"/>
					<v:ud v:nameU="visLegendShape" v:val="VT0(2):26"/>
					<v:ud v:nameU="visVersion" v:prompt="" v:val="VT0(15):26"/>
					<v:ud v:nameU="HasText" v:prompt="" v:val="VT0(1):5"/>
				</v:userDefs>
				<title>Server.23</title>
				<desc>ProxyServer (Owned by hacker)</desc>
				<g id="shape17-67" v:mID="17" v:groupContext="shape">
					<title>Sheet.17</title>
					<path d="M68.74 87.71 L42.3 73.56 L0 96.6 L0.02 155.79 A44.508 41.5646 -180 0 0 26.1 169.03 L68.74 145.98 L68.74
								 87.71 ZM11.74 105.82 A45.9332 42.8955 -180 0 0 26.1 110.92 A45.4202 42.4164 0 0 1 11.74 105.82 Z"
							class="st1"/>
				</g>
				<g id="shape18-69" v:mID="18" v:groupContext="shape" transform="translate(0,-58.105)">
					<title>Sheet.18</title>
					<path d="M26.09 169.03 L68.74 145.82 L42.3 131.66 L0 154.7 A45.9332 42.8955 -180 0 0 26.1 169.03 L26.09 169.03
								 Z" class="st2"/>
					<path d="M26.09 169.03 L68.74 145.82 L42.3 131.66 L0 154.7 A45.9332 42.8955 -180 0 0 26.1 169.03" class="st3"/>
				</g>
				<g id="shape19-73" v:mID="19" v:groupContext="shape" transform="translate(0.0156193,-4.83169E-013)">
					<title>Sheet.19</title>
					<path d="M26.09 110.92 A45.4202 42.4164 0 0 1 0 96.53 L0 155.79 A44.508 41.5646 -180 0 0 26.09 169.03 L26.07
								 110.92 L26.09 110.92 Z" class="st4"/>
					<path d="M26.09 110.92 A45.4202 42.4164 0 0 1 0 96.53 L0 155.79 A44.508 41.5646 -180 0 0 26.09 169.03 L26.07
								 110.92" class="st5"/>
				</g>
				<g id="shape20-77" v:mID="20" v:groupContext="shape" transform="translate(26.086,-0.0656713)">
					<title>Sheet.20</title>
					<path d="M0 110.99 L0 169.03 L42.65 146.05 L42.65 87.78 L0 110.99 Z" class="st6"/>
				</g>
				<g id="shape21-80" v:mID="21" v:groupContext="shape" transform="translate(0,-0.00210454)">
					<title>Sheet.21</title>
					<path d="M68.74 87.71 L42.3 73.56 L0 96.6 L0.02 155.79 A44.508 41.5646 -180 0 0 26.1 169.03 L68.74 145.98 L68.74
								 87.71" class="st7"/>
				</g>
				<g id="shape22-83" v:mID="22" v:groupContext="shape" transform="translate(-46.7531,-20.4978) rotate(-20)">
					<title>Sheet.22</title>
					<ellipse cx="1.99671" cy="166.307" rx="1.99671" ry="2.7189" class="st8"/>
				</g>
				<g id="shape23-86" v:mID="23" v:groupContext="shape" transform="translate(4.23016,-8.39672)">
					<title>Sheet.23</title>
					<path d="M0 152.9 A50.9526 46.5366 -96.44 0 0 17.63 161.95" class="st9"/>
					<path d="M0 156.43 A50.9526 46.5366 -96.44 0 0 17.63 165.49" class="st9"/>
					<path d="M0 159.97 A50.9526 46.5366 -96.44 0 0 17.63 169.03" class="st9"/>
				</g>
				<g id="group24-92" transform="translate(3.52514,-41.1522)" v:mID="24" v:groupContext="group">
					<title>Sheet.24</title>
					<g id="shape25-93" v:mID="25" v:groupContext="shape" transform="translate(0,-9.52433)">
						<title>Sheet.25</title>
						<path d="M0.63 159.97 A44.4558 41.5158 -180 0 0 18.25 169.03 a0.903316 0.843577 -180 0 0 -3.55271E-015 -1.646
									 A43.2463 40.3863 0 0 1 0.98 158.59 a0.585216 0.546513 -180 0 0 -0.977009 0.464601 A1.27545 1.1911
									 -180 0 0 0.63 159.97 Z" class="st10"/>
					</g>
					<g id="shape26-95" v:mID="26" v:groupContext="shape" transform="translate(5.60554,-11.5991)">
						<title>Sheet.26</title>
						<path d="M5.42 168.96 A6.60555 4.0212 -90.9 0 0 0.13 166.33 A4.34612 2.16683 -180 0 0 5.42 168.96 Z"
								class="st11"/>
					</g>
					<g id="shape27-98" v:mID="27" v:groupContext="shape" transform="translate(0.705027,-0.0823002)">
						<title>Sheet.27</title>
						<path d="M0 155.36 L0 159.97 A47.821 44.6584 -180 0 0 17.63 169.03 L17.63 164.42 A49.3861 46.12 0 0 1 0 155.36
									 Z" class="st12"/>
					</g>
					<g id="shape28-101" v:mID="28" v:groupContext="shape" transform="translate(0.705027,-2.63361)">
						<title>Sheet.28</title>
						<path d="M-0 159.97 A43.2834 40.4209 -180 0 0 17.63 169.03 L17.63 167.87 A47.8402 44.6764 0 0 1 0 158.82
									 L0 159.97 Z" class="st13"/>
					</g>
					<g id="shape29-103" v:mID="29" v:groupContext="shape" transform="translate(0.705027,-0.1646)">
						<title>Sheet.29</title>
						<path d="M0 155.36 L0 159.97 A47.821 44.6584 -180 0 0 17.63 169.03" class="st3"/>
					</g>
					<g id="shape30-106" v:mID="30" v:groupContext="shape" transform="translate(0.705027,8.52651E-014)">
						<title>Sheet.30</title>
						<path d="M17.63 169.03 L17.63 164.42 A49.3861 46.12 0 0 1 0 155.36" class="st14"/>
					</g>
				</g>
				<g id="shape16-110" v:mID="16" v:groupContext="groupContent">
					<v:textBlock v:margins="rect(4,4,4,4)" v:tabSpace="42.5197"/>
					<v:textRect cx="34.3701" cy="187.428" width="103" height="36.8038"/>
					<text x="5.08" y="183.83" class="st15" v:langID="1033"><v:paragraph v:horizAlign="1"/><v:tabList/>ProxyServer<v:newlineChar/><tspan
								x="-11.77" dy="1.2em" class="st16">(</tspan>Owned by hacker)</text>				</g>
			</g>
			<g id="group31-113" transform="translate(-3.9968E-015,-19.3898)" v:mID="31" v:groupContext="group">
				<v:custProps>
					<v:cp v:nameU="Name" v:lbl="Name" v:type="0" v:invis="false" v:ask="false" v:langID="1033"/>
					<v:cp v:nameU="Location" v:lbl="Location" v:type="0" v:invis="false" v:ask="false" v:langID="1033"/>
					<v:cp v:nameU="Building" v:lbl="Building" v:type="0" v:invis="false" v:ask="false" v:langID="1033"/>
					<v:cp v:nameU="Room" v:lbl="Room" v:type="0" v:invis="false" v:ask="false" v:langID="1033"/>
					<v:cp v:nameU="Department" v:lbl="Department" v:type="0" v:invis="false" v:ask="false" v:langID="1033"/>
					<v:cp v:nameU="ShapeClass" v:lbl="ShapeClass" v:type="0" v:invis="true" v:ask="false" v:langID="1033"
							v:val="VT4(Connectivity)"/>
					<v:cp v:nameU="ShapeType" v:lbl="ShapeType" v:type="0" v:invis="true" v:ask="false" v:langID="1033"
							v:val="VT4(User)"/>
				</v:custProps>
				<v:userDefs>
					<v:ud v:nameU="HasText" v:val="VT0(0):5"/>
					<v:ud v:nameU="ShapeClass" v:val="VT0(4):26"/>
					<v:ud v:nameU="ShapeType" v:val="VT0(4):26"/>
					<v:ud v:nameU="SolSH" v:val="VT15({BF0433D9-CD73-4EB5-8390-8653BE590246}):41"/>
					<v:ud v:nameU="visLegendShape" v:val="VT0(2):26"/>
					<v:ud v:nameU="visVersion" v:prompt="" v:val="VT0(15):26"/>
					<v:ud v:nameU="HasText" v:prompt="" v:val="VT0(1):5"/>
				</v:userDefs>
				<title>User.6</title>
				<desc>User</desc>
				<g id="shape32-114" v:mID="32" v:groupContext="shape" transform="translate(-4.60905,0)">
					<title>Sheet.32</title>
					<path d="M11.66 132.12 A19.0671 18.6615 -180 0 0 -0 148.44 L0.06 156.09 A6.49779 6.35958 -180 0 0 2.49 161.13
								 A2.50228 2.44905 -180 0 0 5.27 161.59 A3.34855 3.27733 -180 0 0 6.87 164.07 A45.299 44.3354 -180
								 0 0 28.24 169.02 A14.6407 14.3293 -180 0 0 35.12 167.23 A2.37367 2.32318 -180 0 0 37.88 167.67 A9.81186
								 9.60315 -180 0 0 42.49 162.95 L42.49 149.45 A18.6915 18.2939 -180 0 0 30.86 133.45 L30.75 133.45
								 A12.641 12.3721 -180 1 0 11.69 132.12 L11.66 132.12 Z" class="st17"/>
					<path d="M11.66 132.12 A19.0671 18.6615 -180 0 0 -0 148.44 L0.06 156.09 A6.49779 6.35958 -180 0 0 2.49 161.13
								 A2.50228 2.44905 -180 0 0 5.27 161.59 A3.34855 3.27733 -180 0 0 6.87 164.07 A45.299 44.3354 -180
								 0 0 28.24 169.02 A14.6407 14.3293 -180 0 0 35.12 167.23 A2.37367 2.32318 -180 0 0 37.88 167.67 A9.81186
								 9.60315 -180 0 0 42.49 162.95 L42.49 149.45 A18.6915 18.2939 -180 0 0 30.86 133.45 L30.75 133.45
								 A12.641 12.3721 -180 1 0 11.69 132.12" class="st18"/>
				</g>
				<g id="shape33-117" v:mID="33" v:groupContext="shape" transform="translate(0.0287731,-5.68434E-013)">
					<title>Sheet.33</title>
					<path d="M6.87 164.07 A45.299 44.3354 -180 0 0 28.24 169.02 A14.6407 14.3293 -180 0 0 35.12 167.23 A2.37367 2.32318
								 -180 0 0 37.88 167.67 A9.81186 9.60315 -180 0 0 42.49 162.95 L42.49 149.45 A18.6915 18.2939 -180
								 0 0 30.86 133.45 L11.66 132.12 A19.0671 18.6615 -180 0 0 -0 148.44 L0.06 156.09 A6.49779 6.35958
								 -180 0 0 2.49 161.13 A2.50228 2.44905 -180 0 0 5.27 161.59 A3.34855 3.27733 -180 0 0 6.87 164.07
								 Z" class="st19"/>
					<path d="M6.87 164.07 A45.299 44.3354 -180 0 0 28.24 169.02 A14.6407 14.3293 -180 0 0 35.12 167.23 A2.37367 2.32318
								 -180 0 0 37.88 167.67 A9.81186 9.60315 -180 0 0 42.49 162.95 L42.49 149.45 A18.6915 18.2939 -180
								 0 0 30.86 133.45M11.66 132.12 A19.0671 18.6615 -180 0 0 -0 148.44 L0.06 156.09 A6.49779 6.35958
								 -180 0 0 2.49 161.13 A2.50228 2.44905 -180 0 0 5.27 161.59 A3.34855 3.27733 -180 0 0 6.87 164.07"
							class="st20"/>
				</g>
				<g id="shape34-122" v:mID="34" v:groupContext="shape" transform="translate(9.19345,-31.9487)">
					<title>Sheet.34</title>
					<ellipse cx="12.641" cy="156.654" rx="12.641" ry="12.3721" class="st21"/>
				</g>
				<g id="shape35-125" v:mID="35" v:groupContext="shape" transform="translate(-161.431,133.815) rotate(-80.5423)">
					<title>Sheet.35</title>
					<path d="M-0 169.03 A43.8253 55.1945 0 0 1 23.71 169.03" class="st22"/>
				</g>
				<g id="shape36-129" v:mID="36" v:groupContext="shape" transform="translate(-132.26,179.689) rotate(-94.2553)">
					<title>Sheet.36</title>
					<path d="M-0 167.87 A84.7366 106.767 -180 0 0 24.82 167.87" class="st22"/>
				</g>
				<g id="shape37-133" v:mID="37" v:groupContext="shape" transform="translate(11.7216,-32.1571)">
					<title>Sheet.37</title>
					<path d="M0 164.07 A12.6648 12.3954 -180 0 0 19.09 165.4" class="st22"/>
				</g>
				<g id="shape38-137" v:mID="38" v:groupContext="shape" transform="translate(0.0287731,0)">
					<title>Sheet.38</title>
					<path d="M11.66 132.12 A19.4535 19.0397 -180 0 0 -0 148.44 L0.06 156.09 A6.49779 6.35958 -180 0 0 2.49 161.13
								 A2.50228 2.44905 -180 0 0 5.27 161.59 A3.34855 3.27733 -180 0 0 6.87 164.07 A45.299 44.3354 -180
								 0 0 28.24 169.02 A14.6407 14.3293 -180 0 0 35.12 167.23 A2.37367 2.32318 -180 0 0 37.88 167.67 A9.81186
								 9.60315 -180 0 0 42.49 162.95 L42.49 150.7 A18.5051 18.1115 -180 0 0 30.86 133.45 L30.75 133.45
								 A12.646 12.377 -180 1 0 11.66 132.12" class="st23"/>
				</g>
				<g id="shape31-140" v:mID="31" v:groupContext="groupContent">
					<v:textBlock v:margins="rect(4,4,4,4)" v:tabSpace="42.5197"/>
					<v:textRect cx="21.2598" cy="180.228" width="33.27" height="22.4037"/>
					<text x="9.99" y="183.83" class="st15" v:langID="1033"><v:paragraph v:horizAlign="1"/><v:tabList/>User</text>				</g>
			</g>
			<g id="shape39-142" v:mID="39" v:groupContext="shape" transform="translate(276.354,-23.7795)">
				<title>Simple Arrow.52</title>
				<desc>(3) Webpage</desc>
				<v:userDefs>
					<v:ud v:nameU="visVersion" v:val="VT0(15):26"/>
					<v:ud v:nameU="ArrowType" v:prompt="" v:val="VT0(2):26"/>
				</v:userDefs>
				<v:textBlock v:margins="rect(4,4,4,4)" v:tabSpace="42.5197"/>
				<v:textRect cx="69.6969" cy="169.026" width="139.4" height="0"/>
				<path d="M0 169.03 L11.34 166.19 L11.34 167.61 L139.39 167.61 L139.39 169.03 L139.39 170.44 L11.34 170.44 L11.34
							 171.86 L0 169.03 Z" class="st24"/>
				<text x="43.57" y="184.03" class="st25" v:langID="1033"><v:paragraph v:horizAlign="1"/><v:tabList/><v:newlineChar/><v:newlineChar/>(3) Webpage</text>			</g>
			<g id="shape40-145" v:mID="40" v:groupContext="shape" transform="translate(50.7638,-23.7795)">
				<title>Simple Arrow.53</title>
				<desc>(4) Webpage + malicious code</desc>
				<v:userDefs>
					<v:ud v:nameU="visVersion" v:val="VT0(15):26"/>
					<v:ud v:nameU="ArrowType" v:prompt="" v:val="VT0(2):26"/>
				</v:userDefs>
				<v:textBlock v:margins="rect(4,4,4,4)" v:tabSpace="42.5197"/>
				<v:textRect cx="69.6969" cy="169.026" width="139.4" height="0"/>
				<path d="M0 169.03 L11.34 166.19 L11.34 167.61 L139.39 167.61 L139.39 169.03 L139.39 170.44 L11.34 170.44 L11.34
							 171.86 L0 169.03 Z" class="st24"/>
				<text x="8.66" y="190.03" class="st25" v:langID="1033"><v:paragraph v:horizAlign="1"/><v:tabList/><v:newlineChar/><v:newlineChar/><v:newlineChar/>(4) Webpage + malicious code</text>			</g>
			<g id="shape41-148" v:mID="41" v:groupContext="shape" transform="translate(193.063,287.926) rotate(179.415)">
				<title>Simple Arrow.54</title>
				<desc>(1) Webpage request</desc>
				<v:userDefs>
					<v:ud v:nameU="visVersion" v:val="VT0(15):26"/>
					<v:ud v:nameU="ArrowType" v:prompt="" v:val="VT0(2):26"/>
				</v:userDefs>
				<v:textBlock v:margins="rect(4,4,4,4)" v:tabSpace="42.5197"/>
				<v:textRect cx="69.4524" cy="169.026" width="138.91" height="0" transform="rotate(180)"/>
				<path d="M0 169.03 L11.34 166.19 L11.34 167.61 L138.9 167.61 L138.9 169.03 L138.9 170.44 L11.34 170.44 L11.34 171.86
							 L0 169.03 Z" class="st24"/>
				<text x="-112.31" y="-178.03" transform="rotate(180)" class="st25" v:langID="1033"><v:paragraph v:horizAlign="1"/><v:tabList/>(1) Webpage request<v:newlineChar/><v:newlineChar/></text>			</g>
			<g id="shape42-151" v:mID="42" v:groupContext="shape" transform="translate(419.362,286.272) rotate(179.415)">
				<title>Simple Arrow.55</title>
				<desc>(2) Webpage request</desc>
				<v:userDefs>
					<v:ud v:nameU="visVersion" v:val="VT0(15):26"/>
					<v:ud v:nameU="ArrowType" v:prompt="" v:val="VT0(2):26"/>
				</v:userDefs>
				<v:textBlock v:margins="rect(4,4,4,4)" v:tabSpace="42.5197"/>
				<v:textRect cx="69.4524" cy="169.026" width="138.91" height="0" transform="rotate(180)"/>
				<path d="M0 169.03 L11.34 166.19 L11.34 167.61 L138.9 167.61 L138.9 169.03 L138.9 170.44 L11.34 170.44 L11.34 171.86
							 L0 169.03 Z" class="st24"/>
				<text x="-112.31" y="-178.03" transform="rotate(180)" class="st25" v:langID="1033"><v:paragraph v:horizAlign="1"/><v:tabList/>(2) Webpage request<v:newlineChar/><v:newlineChar/></text>			</g>
		</g>
	</g>
</svg>
