<?xml version="1.0" encoding="UTF-8" standalone="no"?>
<!DOCTYPE svg PUBLIC "-//W3C//DTD SVG 1.1//EN" "http://www.w3.org/Graphics/SVG/1.1/DTD/svg11.dtd">
<!-- Generated by Microsoft Visio, SVG Export mitm3.svg Page-3 -->
<svg xmlns="http://www.w3.org/2000/svg" xmlns:xlink="http://www.w3.org/1999/xlink" xmlns:ev="http://www.w3.org/2001/xml-events"
		xmlns:v="http://schemas.microsoft.com/visio/2003/SVGExtensions/" width="7.51956in" height="4.43734in"
		viewBox="0 0 541.408 319.488" xml:space="preserve" color-interpolation-filters="sRGB" class="st26">
	<v:documentProperties v:langID="1033" v:metric="true" v:viewMarkup="false">
		<v:userDefs>
			<v:ud v:nameU="msvNoAutoConnect" v:val="VT0(1):26"/>
		</v:userDefs>
	</v:documentProperties>

	<style type="text/css">
	<![CDATA[
		.st1 {fill:#ff00ff;fill-opacity:0;stroke:#000000;stroke-linecap:round;stroke-linejoin:round;stroke-opacity:0;stroke-width:0.72}
		.st2 {fill:url(#grad0-8)}
		.st3 {stroke:#ffffff;stroke-linecap:round;stroke-linejoin:round;stroke-width:0.36}
		.st4 {fill:url(#grad11-13)}
		.st5 {stroke:#a78450;stroke-linecap:round;stroke-linejoin:round;stroke-width:0.36}
		.st6 {fill:url(#grad12-20);stroke:#ffffff;stroke-linecap:round;stroke-linejoin:round;stroke-width:0.36}
		.st7 {stroke:#000000;stroke-linecap:round;stroke-linejoin:round;stroke-width:1.5}
		.st8 {fill:url(#grad12-29);stroke:#000000;stroke-linecap:round;stroke-linejoin:round;stroke-width:0.36}
		.st9 {stroke:#000000;stroke-linecap:round;stroke-linejoin:round;stroke-width:0.6}
		.st10 {fill:#000000;stroke:#000000;stroke-linecap:round;stroke-linejoin:round;stroke-width:0.36}
		.st11 {fill:url(#grad8-45);stroke:#ffffff;stroke-linecap:round;stroke-linejoin:round;stroke-width:0.12}
		.st12 {fill:url(#grad10-50);stroke:none;stroke-linecap:round;stroke-linejoin:round;stroke-width:0.12}
		.st13 {fill:#000000;stroke:none;stroke-linecap:round;stroke-linejoin:round;stroke-width:0.24}
		.st14 {stroke:#000000;stroke-linecap:round;stroke-linejoin:round;stroke-width:0.36}
		.st15 {fill:#000000;font-family:Calibri;font-size:1.00001em}
		.st16 {fill:#ff00ff;fill-opacity:0}
		.st17 {stroke:#000000;stroke-linecap:round;stroke-linejoin:round;stroke-opacity:0;stroke-width:0.72}
		.st18 {fill:url(#grad3-73)}
		.st19 {stroke:#373773;stroke-linecap:round;stroke-linejoin:round;stroke-width:0.72}
		.st20 {fill:url(#grad3-73);stroke:#555555;stroke-linecap:round;stroke-linejoin:round;stroke-width:0.72}
		.st21 {stroke:#555555;stroke-linecap:round;stroke-linejoin:round;stroke-width:0.72}
		.st22 {stroke:#000000;stroke-linecap:round;stroke-linejoin:round;stroke-width:2}
		.st23 {fill:#ffffff;stroke:#000000;stroke-linecap:round;stroke-linejoin:round;stroke-width:0.24}
		.st24 {fill:#000000;font-family:Calibri;font-size:0.833336em}
		.st25 {font-size:1em}
		.st26 {fill:none;fill-rule:evenodd;font-size:12px;overflow:visible;stroke-linecap:square;stroke-miterlimit:3}
	]]>
	</style>

	<defs id="Patterns_And_Gradients">
		<linearGradient id="grad0-8" x1="0" y1="0" x2="1" y2="0" gradientTransform="rotate(270 0.5 0.5)">
			<stop offset="0" stop-color="#ffffff" stop-opacity="1"/>
			<stop offset="1" stop-color="#e1d8c1" stop-opacity="1"/>
		</linearGradient>
		<pattern id="grad11-13" x="0" y="0" width="1" height="1" patternContentUnits="objectBoundingBox">
			<path d="M 0 1 L 0 0 L 1 0 z" style="fill:url(#grad0-14)"/>
			<path d="M 0 1 L 1 1 L 1 0 z" style="fill:url(#grad0-15)"/>
		</pattern>
		<linearGradient id="grad0-14" x1="0" y1="0" x2="1" y2="0" gradientTransform="rotate(180 0.5 0.5)">
			<stop offset="0" stop-color="#ffffff" stop-opacity="1"/>
			<stop offset="1" stop-color="#c9ba96" stop-opacity="1"/>
		</linearGradient>
		<linearGradient id="grad0-15" x1="0" y1="0" x2="1" y2="0" gradientTransform="rotate(90 0.5 0.5)">
			<stop offset="0" stop-color="#ffffff" stop-opacity="1"/>
			<stop offset="1" stop-color="#c9ba96" stop-opacity="1"/>
		</linearGradient>
		<pattern id="grad12-20" x="0" y="0" width="1" height="1" patternContentUnits="objectBoundingBox">
			<path d="M 0 0 L 0 1 L 1 1 z" style="fill:url(#grad0-21)"/>
			<path d="M 0 0 L 1 0 L 1 1 z" style="fill:url(#grad0-22)"/>
		</pattern>
		<linearGradient id="grad0-21" x1="0" y1="0" x2="1" y2="0" gradientTransform="rotate(90 0.5 0.5)">
			<stop offset="0" stop-color="#ffffff" stop-opacity="1"/>
			<stop offset="1" stop-color="#b6a06d" stop-opacity="1"/>
		</linearGradient>
		<linearGradient id="grad0-22" x1="0" y1="0" x2="1" y2="0" gradientTransform="rotate(360 0.5 0.5)">
			<stop offset="0" stop-color="#ffffff" stop-opacity="1"/>
			<stop offset="1" stop-color="#b6a06d" stop-opacity="1"/>
		</linearGradient>
		<pattern id="grad12-29" x="0" y="0" width="1" height="1" patternContentUnits="objectBoundingBox">
			<path d="M 0 0 L 0 1 L 1 1 z" style="fill:url(#grad0-30)"/>
			<path d="M 0 0 L 1 0 L 1 1 z" style="fill:url(#grad0-31)"/>
		</pattern>
		<linearGradient id="grad0-30" x1="0" y1="0" x2="1" y2="0" gradientTransform="rotate(90 0.5 0.5)">
			<stop offset="0" stop-color="#ffffff" stop-opacity="1"/>
			<stop offset="1" stop-color="#339966" stop-opacity="1"/>
		</linearGradient>
		<linearGradient id="grad0-31" x1="0" y1="0" x2="1" y2="0" gradientTransform="rotate(360 0.5 0.5)">
			<stop offset="0" stop-color="#ffffff" stop-opacity="1"/>
			<stop offset="1" stop-color="#339966" stop-opacity="1"/>
		</linearGradient>
		<linearGradient id="grad0-35" x1="0" y1="0" x2="1" y2="0" gradientTransform="rotate(270 0.5 0.5)">
			<stop offset="0" stop-color="#ffffff" stop-opacity="1"/>
			<stop offset="1" stop-color="#e7e4cd" stop-opacity="1"/>
		</linearGradient>
		<pattern id="grad8-45" x="0" y="0" width="1" height="1" patternContentUnits="objectBoundingBox">
			<path d="M 0 0 L 1 0 L 1 1 z" style="fill:url(#grad0-35)"/>
			<path d="M 0 0 L 0 1 L 1 1 z" style="fill:url(#grad0-46)"/>
		</pattern>
		<linearGradient id="grad0-46" x1="0" y1="0" x2="1" y2="0" gradientTransform="rotate(180 0.5 0.5)">
			<stop offset="0" stop-color="#ffffff" stop-opacity="1"/>
			<stop offset="1" stop-color="#e7e4cd" stop-opacity="1"/>
		</linearGradient>
		<pattern id="grad10-50" x="0" y="0" width="1" height="1" patternContentUnits="objectBoundingBox">
			<path d="M 0.5 0.5 L 0 0 L 0 1 z" style="fill:url(#grad0-51)"/>
			<path d="M 0.5 0.5 L 1 0 L 1 1 z" style="fill:url(#grad0-52)"/>
			<path d="M 0.5 0.5 L 0 0 L 1 0 z" style="fill:url(#grad0-53)"/>
			<path d="M 0.5 0.5 L 0 1 L 1 1 z" style="fill:url(#grad0-54)"/>
		</pattern>
		<linearGradient id="grad0-51" x1="0" y1="0" x2="1" y2="0" gradientTransform="rotate(180 0.5 0.5)">
			<stop offset="0" stop-color="#000000" stop-opacity="0.4"/>
			<stop offset="1" stop-color="#e7e4cd" stop-opacity="0.4"/>
		</linearGradient>
		<linearGradient id="grad0-52" x1="0" y1="0" x2="1" y2="0" gradientTransform="rotate(360 0.5 0.5)">
			<stop offset="0" stop-color="#000000" stop-opacity="0.4"/>
			<stop offset="1" stop-color="#e7e4cd" stop-opacity="0.4"/>
		</linearGradient>
		<linearGradient id="grad0-53" x1="0" y1="0" x2="1" y2="0" gradientTransform="rotate(270 0.5 0.5)">
			<stop offset="0" stop-color="#000000" stop-opacity="0.4"/>
			<stop offset="1" stop-color="#e7e4cd" stop-opacity="0.4"/>
		</linearGradient>
		<linearGradient id="grad0-54" x1="0" y1="0" x2="1" y2="0" gradientTransform="rotate(90 0.5 0.5)">
			<stop offset="0" stop-color="#000000" stop-opacity="0.4"/>
			<stop offset="1" stop-color="#e7e4cd" stop-opacity="0.4"/>
		</linearGradient>
		<radialGradient id="grad3-73" cx="0.5" cy="0.5" r="0.73">
			<stop offset="0" stop-color="#c6d1e3" stop-opacity="1"/>
			<stop offset="1" stop-color="#4e8ec2" stop-opacity="1"/>
		</radialGradient>
	</defs>
	<g v:mID="5" v:index="3" v:groupContext="foregroundPage">
		<title>Page-3</title>
		<v:pageProperties v:drawingScale="0.0393701" v:pageScale="0.0393701" v:drawingUnits="24" v:shadowOffsetX="8.50394"
				v:shadowOffsetY="-8.50394"/>
		<g id="group68-1" transform="translate(22.969,-40.4037)" v:mID="68" v:groupContext="group">
			<title>Sheet.68</title>
			<g id="group1-2" transform="translate(425.197,-164.862)" v:mID="1" v:groupContext="group">
				<v:custProps>
					<v:cp v:nameU="Manufacturer" v:lbl="Manufacturer" v:type="0" v:sortKey="Equipment" v:invis="false"
							v:ask="false" v:langID="1033"/>
					<v:cp v:nameU="ProductNumber" v:lbl="Product Number" v:type="0" v:sortKey="Equipment" v:invis="false"
							v:ask="false" v:langID="1033"/>
					<v:cp v:nameU="PartNumber" v:lbl="Part Number" v:type="0" v:sortKey="Equipment" v:invis="false" v:ask="false"
							v:langID="1033"/>
					<v:cp v:nameU="ProductDescription" v:lbl="Product Description" v:type="0" v:sortKey="Equipment" v:invis="false"
							v:ask="false" v:langID="1033"/>
					<v:cp v:nameU="AssetNumber" v:lbl="Asset Number" v:type="0" v:sortKey="Asset" v:invis="false" v:ask="false"
							v:langID="1033"/>
					<v:cp v:nameU="SerialNumber" v:lbl="Serial Number" v:type="0" v:sortKey="Asset" v:invis="false" v:ask="false"
							v:langID="1033"/>
					<v:cp v:nameU="Location" v:lbl="Location" v:type="0" v:sortKey="Asset" v:invis="false" v:ask="false"
							v:langID="1033"/>
					<v:cp v:nameU="Building" v:lbl="Building" v:type="0" v:sortKey="Asset" v:invis="false" v:ask="false"
							v:langID="1033"/>
					<v:cp v:nameU="Room" v:lbl="Room" v:type="0" v:sortKey="Asset" v:invis="false" v:ask="false" v:langID="1033"/>
					<v:cp v:nameU="Department" v:lbl="Department" v:type="0" v:invis="false" v:ask="false" v:langID="1033"/>
					<v:cp v:nameU="NetworkName" v:lbl="Network Name" v:type="0" v:sortKey="Network" v:invis="false" v:ask="false"
							v:langID="1033"/>
					<v:cp v:nameU="IPAddress" v:lbl="IP Address" v:type="0" v:sortKey="Network" v:invis="false" v:ask="false"
							v:langID="1033"/>
					<v:cp v:nameU="SubnetMask" v:lbl="Subnet Mask" v:type="0" v:sortKey="Network" v:invis="false" v:ask="false"
							v:langID="1033"/>
					<v:cp v:nameU="AdminInterface" v:lbl="Administrative Interface" v:type="0" v:sortKey="Network" v:invis="false"
							v:ask="false" v:langID="1033"/>
					<v:cp v:nameU="NumberofPorts" v:lbl="Number of Ports" v:type="0" v:sortKey="Network" v:invis="false"
							v:ask="false" v:langID="1033"/>
					<v:cp v:nameU="CommunityString" v:lbl="Community String" v:type="0" v:sortKey="Network" v:invis="false"
							v:ask="false" v:langID="1033"/>
					<v:cp v:nameU="NetworkDescription" v:lbl="Network Description" v:type="0" v:sortKey="Network" v:invis="false"
							v:ask="false" v:langID="1033"/>
					<v:cp v:nameU="CPU" v:lbl="CPU" v:type="0" v:sortKey="Workstation" v:invis="false" v:ask="false"
							v:langID="1033"/>
					<v:cp v:nameU="Memory" v:lbl="Memory" v:type="0" v:sortKey="Workstation" v:invis="false" v:ask="false"
							v:langID="1033"/>
					<v:cp v:nameU="OperatingSystem" v:lbl="Operating System" v:type="0" v:sortKey="Workstation" v:invis="false"
							v:ask="false" v:langID="1033"/>
					<v:cp v:nameU="BelongsTo" v:lbl="Belongs To" v:type="0" v:invis="true" v:ask="false" v:langID="1033"/>
					<v:cp v:nameU="ShapeClass" v:lbl="ShapeClass" v:type="0" v:invis="true" v:ask="false" v:langID="1033"
							v:val="VT4(Equipment)"/>
					<v:cp v:nameU="ShapeType" v:lbl="ShapeType" v:type="0" v:invis="true" v:ask="false" v:langID="1033"
							v:val="VT4(Server)"/>
					<v:cp v:nameU="MACAddress" v:lbl="MAC Address" v:type="0" v:sortKey="Network" v:invis="false" v:ask="false"
							v:langID="1033"/>
					<v:cp v:nameU="HardDriveSize" v:lbl="Hard Drive Capacity" v:type="0" v:sortKey="Workstation" v:invis="false"
							v:ask="false" v:langID="1033"/>
				</v:custProps>
				<v:userDefs>
					<v:ud v:nameU="HasText" v:val="VT0(0):5"/>
					<v:ud v:nameU="ShapeClass" v:val="VT0(5):26"/>
					<v:ud v:nameU="ShapeType" v:val="VT0(24):26"/>
					<v:ud v:nameU="SolSH" v:val="VT15({BF0433D9-CD73-4EB5-8390-8653BE590246}):41"/>
					<v:ud v:nameU="visLegendShape" v:val="VT0(2):26"/>
					<v:ud v:nameU="visVersion" v:prompt="" v:val="VT0(15):26"/>
					<v:ud v:nameU="HasText" v:prompt="" v:val="VT0(1):5"/>
				</v:userDefs>
				<title>Server.148</title>
				<desc>Website (http)</desc>
				<g id="shape2-3" v:mID="2" v:groupContext="shape">
					<title>Sheet.2</title>
					<path d="M68.74 238.17 L42.3 224.02 L0 247.06 L0.02 306.25 A44.508 41.5646 -180 0 0 26.1 319.49 L68.74 296.44
								 L68.74 238.17 ZM11.74 256.28 A45.9332 42.8955 -180 0 0 26.1 261.38 A45.4202 42.4164 0 0 1 11.74
								 256.28 Z" class="st1"/>
				</g>
				<g id="shape3-5" v:mID="3" v:groupContext="shape" transform="translate(0,-58.105)">
					<title>Sheet.3</title>
					<path d="M26.09 319.49 L68.74 296.28 L42.3 282.12 L0 305.17 A45.9332 42.8955 -180 0 0 26.1 319.49 L26.09 319.49
								 Z" class="st2"/>
					<path d="M26.09 319.49 L68.74 296.28 L42.3 282.12 L0 305.17 A45.9332 42.8955 -180 0 0 26.1 319.49" class="st3"/>
				</g>
				<g id="shape4-10" v:mID="4" v:groupContext="shape" transform="translate(0.0156193,-4.54747E-013)">
					<title>Sheet.4</title>
					<path d="M26.09 261.38 A45.4202 42.4164 0 0 1 0 247 L0 306.25 A44.508 41.5646 -180 0 0 26.09 319.49 L26.07 261.38
								 L26.09 261.38 Z" class="st4"/>
					<path d="M26.09 261.38 A45.4202 42.4164 0 0 1 0 247 L0 306.25 A44.508 41.5646 -180 0 0 26.09 319.49 L26.07 261.38"
							class="st5"/>
				</g>
				<g id="shape5-17" v:mID="5" v:groupContext="shape" transform="translate(26.086,-0.0656713)">
					<title>Sheet.5</title>
					<path d="M0 261.45 L0 319.49 L42.65 296.51 L42.65 238.24 L0 261.45 Z" class="st6"/>
				</g>
				<g id="shape6-23" v:mID="6" v:groupContext="shape" transform="translate(0,-0.00210454)">
					<title>Sheet.6</title>
					<path d="M68.74 238.17 L42.3 224.02 L0 247.06 L0.02 306.25 A44.508 41.5646 -180 0 0 26.1 319.49 L68.74 296.44
								 L68.74 238.17" class="st7"/>
				</g>
				<g id="shape7-26" v:mID="7" v:groupContext="shape" transform="translate(-98.2142,-11.4239) rotate(-20)">
					<title>Sheet.7</title>
					<ellipse cx="1.99671" cy="316.769" rx="1.99671" ry="2.7189" class="st8"/>
				</g>
				<g id="shape8-32" v:mID="8" v:groupContext="shape" transform="translate(4.23016,-8.39672)">
					<title>Sheet.8</title>
					<path d="M-0 303.36 A50.9526 46.5366 -96.44 0 0 17.63 312.41" class="st9"/>
					<path d="M0 306.9 A50.9526 46.5366 -96.44 0 0 17.63 315.95" class="st9"/>
					<path d="M0 310.44 A50.9526 46.5366 -96.44 0 0 17.63 319.49" class="st9"/>
				</g>
				<g id="group9-39" transform="translate(3.52514,-41.1522)" v:mID="9" v:groupContext="group">
					<title>Sheet.9</title>
					<g id="shape10-40" v:mID="10" v:groupContext="shape" transform="translate(0,-9.52433)">
						<title>Sheet.10</title>
						<path d="M0.63 310.44 A44.4558 41.5158 -180 0 0 18.25 319.49 a0.903316 0.843577 -180 0 0 3.55271E-015 -1.646
									 A43.2463 40.3863 0 0 1 0.98 309.05 a0.585216 0.546513 -180 0 0 -0.977009 0.464601 A1.27545 1.1911
									 -180 0 0 0.63 310.44 Z" class="st10"/>
					</g>
					<g id="shape11-42" v:mID="11" v:groupContext="shape" transform="translate(5.60554,-11.5991)">
						<title>Sheet.11</title>
						<path d="M5.42 319.42 A6.60555 4.0212 -90.9 0 0 0.13 316.79 A4.34612 2.16683 -180 0 0 5.42 319.42 Z"
								class="st11"/>
					</g>
					<g id="shape12-47" v:mID="12" v:groupContext="shape" transform="translate(0.705027,-0.0823002)">
						<title>Sheet.12</title>
						<path d="M0 305.83 L0 310.44 A47.821 44.6584 -180 0 0 17.63 319.49 L17.63 314.88 A49.3861 46.12 0 0 1 0 305.83
									 Z" class="st12"/>
					</g>
					<g id="shape13-55" v:mID="13" v:groupContext="shape" transform="translate(0.705027,-2.63361)">
						<title>Sheet.13</title>
						<path d="M-0 310.44 A43.2834 40.4209 -180 0 0 17.63 319.49 L17.63 318.34 A47.8402 44.6764 0 0 1 -0 309.28
									 L0 310.44 Z" class="st13"/>
					</g>
					<g id="shape14-57" v:mID="14" v:groupContext="shape" transform="translate(0.705027,-0.1646)">
						<title>Sheet.14</title>
						<path d="M0 305.83 L0 310.44 A47.821 44.6584 -180 0 0 17.63 319.49" class="st3"/>
					</g>
					<g id="shape15-60" v:mID="15" v:groupContext="shape" transform="translate(0.705027,1.13687E-013)">
						<title>Sheet.15</title>
						<path d="M17.63 319.49 L17.63 314.88 A49.3861 46.12 0 0 1 0 305.83" class="st14"/>
					</g>
				</g>
				<g id="shape1-64" v:mID="1" v:groupContext="groupContent">
					<v:textBlock v:margins="rect(4,4,4,4)" v:tabSpace="42.5197"/>
					<v:textRect cx="34.3701" cy="330.69" width="81.75" height="22.4037"/>
					<text x="-1.14" y="334.29" class="st15" v:langID="1033"><v:paragraph v:horizAlign="1"/><v:tabList/>Website (http)</text>				</g>
			</g>
			<g id="group16-66" transform="translate(-3.9968E-015,-184.252)" v:mID="16" v:groupContext="group">
				<v:custProps>
					<v:cp v:nameU="Name" v:lbl="Name" v:type="0" v:invis="false" v:ask="false" v:langID="1033"/>
					<v:cp v:nameU="Location" v:lbl="Location" v:type="0" v:invis="false" v:ask="false" v:langID="1033"/>
					<v:cp v:nameU="Building" v:lbl="Building" v:type="0" v:invis="false" v:ask="false" v:langID="1033"/>
					<v:cp v:nameU="Room" v:lbl="Room" v:type="0" v:invis="false" v:ask="false" v:langID="1033"/>
					<v:cp v:nameU="Department" v:lbl="Department" v:type="0" v:invis="false" v:ask="false" v:langID="1033"/>
					<v:cp v:nameU="ShapeClass" v:lbl="ShapeClass" v:type="0" v:invis="true" v:ask="false" v:langID="1033"
							v:val="VT4(Connectivity)"/>
					<v:cp v:nameU="ShapeType" v:lbl="ShapeType" v:type="0" v:invis="true" v:ask="false" v:langID="1033"
							v:val="VT4(User)"/>
				</v:custProps>
				<v:userDefs>
					<v:ud v:nameU="HasText" v:val="VT0(0):5"/>
					<v:ud v:nameU="ShapeClass" v:val="VT0(4):26"/>
					<v:ud v:nameU="ShapeType" v:val="VT0(4):26"/>
					<v:ud v:nameU="SolSH" v:val="VT15({BF0433D9-CD73-4EB5-8390-8653BE590246}):41"/>
					<v:ud v:nameU="visLegendShape" v:val="VT0(2):26"/>
					<v:ud v:nameU="visVersion" v:prompt="" v:val="VT0(15):26"/>
					<v:ud v:nameU="HasText" v:prompt="" v:val="VT0(1):5"/>
				</v:userDefs>
				<title>User.163</title>
				<desc>User</desc>
				<g id="shape17-67" v:mID="17" v:groupContext="shape" transform="translate(-4.60905,0)">
					<title>Sheet.17</title>
					<path d="M11.66 282.58 A19.0671 18.6615 -180 0 0 -0 298.9 L0.06 306.55 A6.49779 6.35958 -180 0 0 2.49 311.6 A2.50228
								 2.44905 -180 0 0 5.27 312.05 A3.34855 3.27733 -180 0 0 6.87 314.53 A45.299 44.3354 -180 0 0 28.24
								 319.48 A14.6407 14.3293 -180 0 0 35.12 317.69 A2.37367 2.32318 -180 0 0 37.88 318.14 A9.81186 9.60315
								 -180 0 0 42.49 313.41 L42.49 299.91 A18.6915 18.2939 -180 0 0 30.86 283.92 L30.75 283.91 A12.641
								 12.3721 -180 1 0 11.69 282.58 L11.66 282.58 Z" class="st16"/>
					<path d="M11.66 282.58 A19.0671 18.6615 -180 0 0 -0 298.9 L0.06 306.55 A6.49779 6.35958 -180 0 0 2.49 311.6 A2.50228
								 2.44905 -180 0 0 5.27 312.05 A3.34855 3.27733 -180 0 0 6.87 314.53 A45.299 44.3354 -180 0 0 28.24
								 319.48 A14.6407 14.3293 -180 0 0 35.12 317.69 A2.37367 2.32318 -180 0 0 37.88 318.14 A9.81186 9.60315
								 -180 0 0 42.49 313.41 L42.49 299.91 A18.6915 18.2939 -180 0 0 30.86 283.92 L30.75 283.91 A12.641
								 12.3721 -180 1 0 11.69 282.58" class="st17"/>
				</g>
				<g id="shape18-70" v:mID="18" v:groupContext="shape" transform="translate(0.0287731,-5.68434E-013)">
					<title>Sheet.18</title>
					<path d="M6.87 314.53 A45.299 44.3354 -180 0 0 28.24 319.48 A14.6407 14.3293 -180 0 0 35.12 317.69 A2.37367 2.32318
								 -180 0 0 37.88 318.14 A9.81186 9.60315 -180 0 0 42.49 313.41 L42.49 299.91 A18.6915 18.2939 -180
								 0 0 30.86 283.92 L11.66 282.58 A19.0671 18.6615 -180 0 0 -0 298.9 L0.06 306.55 A6.49779 6.35958
								 -180 0 0 2.49 311.6 A2.50228 2.44905 -180 0 0 5.27 312.05 A3.34855 3.27733 -180 0 0 6.87 314.53
								 Z" class="st18"/>
					<path d="M6.87 314.53 A45.299 44.3354 -180 0 0 28.24 319.48 A14.6407 14.3293 -180 0 0 35.12 317.69 A2.37367 2.32318
								 -180 0 0 37.88 318.14 A9.81186 9.60315 -180 0 0 42.49 313.41 L42.49 299.91 A18.6915 18.2939 -180
								 0 0 30.86 283.92M11.66 282.58 A19.0671 18.6615 -180 0 0 -0 298.9 L0.06 306.55 A6.49779 6.35958 -180
								 0 0 2.49 311.6 A2.50228 2.44905 -180 0 0 5.27 312.05 A3.34855 3.27733 -180 0 0 6.87 314.53"
							class="st19"/>
				</g>
				<g id="shape19-75" v:mID="19" v:groupContext="shape" transform="translate(9.19345,-31.9487)">
					<title>Sheet.19</title>
					<ellipse cx="12.641" cy="307.116" rx="12.641" ry="12.3721" class="st20"/>
				</g>
				<g id="shape20-78" v:mID="20" v:groupContext="shape" transform="translate(-309.848,259.553) rotate(-80.5423)">
					<title>Sheet.20</title>
					<path d="M-0 319.49 A43.8253 55.1945 0 0 1 23.71 319.49" class="st21"/>
				</g>
				<g id="shape21-82" v:mID="21" v:groupContext="shape" transform="translate(-282.308,341.315) rotate(-94.2553)">
					<title>Sheet.21</title>
					<path d="M-0 318.34 A84.7366 106.767 -180 0 0 24.82 318.34" class="st21"/>
				</g>
				<g id="shape22-86" v:mID="22" v:groupContext="shape" transform="translate(11.7216,-32.1571)">
					<title>Sheet.22</title>
					<path d="M0 314.53 A12.6648 12.3954 -180 0 0 19.09 315.86" class="st21"/>
				</g>
				<g id="shape23-90" v:mID="23" v:groupContext="shape" transform="translate(0.0287731,0)">
					<title>Sheet.23</title>
					<path d="M11.66 282.58 A19.4535 19.0397 -180 0 0 -0 298.91 L0.06 306.55 A6.49779 6.35958 -180 0 0 2.49 311.6
								 A2.50228 2.44905 -180 0 0 5.27 312.05 A3.34855 3.27733 -180 0 0 6.87 314.53 A45.299 44.3354 -180
								 0 0 28.24 319.48 A14.6407 14.3293 -180 0 0 35.12 317.69 A2.37367 2.32318 -180 0 0 37.88 318.14 A9.81186
								 9.60315 -180 0 0 42.49 313.41 L42.49 301.17 A18.5051 18.1115 -180 0 0 30.86 283.92 L30.75 283.91
								 A12.646 12.377 -180 1 0 11.66 282.58" class="st22"/>
				</g>
				<g id="shape16-93" v:mID="16" v:groupContext="groupContent">
					<v:textBlock v:margins="rect(4,4,4,4)" v:tabSpace="42.5197"/>
					<v:textRect cx="21.2598" cy="330.69" width="33.27" height="22.4037"/>
					<text x="9.99" y="334.29" class="st15" v:langID="1033"><v:paragraph v:horizAlign="1"/><v:tabList/>User</text>				</g>
			</g>
			<g id="shape24-95" v:mID="24" v:groupContext="shape" transform="translate(276.354,-188.642)">
				<title>Simple Arrow.171</title>
				<desc>(3) Webpage</desc>
				<v:userDefs>
					<v:ud v:nameU="visVersion" v:val="VT0(15):26"/>
					<v:ud v:nameU="ArrowType" v:prompt="" v:val="VT0(2):26"/>
				</v:userDefs>
				<v:textBlock v:margins="rect(4,4,4,4)" v:tabSpace="42.5197"/>
				<v:textRect cx="69.6969" cy="319.488" width="139.4" height="0"/>
				<path d="M0 319.49 L11.34 316.65 L11.34 318.07 L139.39 318.07 L139.39 319.49 L139.39 320.91 L11.34 320.91 L11.34
							 322.32 L0 319.49 Z" class="st23"/>
				<text x="43.57" y="334.49" class="st24" v:langID="1033"><v:paragraph v:horizAlign="1"/><v:tabList/><v:newlineChar/><v:newlineChar/>(3) Webpage</text>			</g>
			<g id="shape25-98" v:mID="25" v:groupContext="shape" transform="translate(50.7638,-188.642)">
				<title>Simple Arrow.172</title>
				<desc>(4) Webpage + JavaScript keylogger attached</desc>
				<v:userDefs>
					<v:ud v:nameU="visVersion" v:val="VT0(15):26"/>
					<v:ud v:nameU="ArrowType" v:prompt="" v:val="VT0(2):26"/>
				</v:userDefs>
				<v:textBlock v:margins="rect(4,4,4,4)" v:tabSpace="42.5197"/>
				<v:textRect cx="69.6969" cy="319.488" width="139.4" height="0"/>
				<path d="M0 319.49 L11.34 316.65 L11.34 318.07 L139.39 318.07 L139.39 319.49 L139.39 320.91 L11.34 320.91 L11.34
							 322.32 L0 319.49 Z" class="st23"/>
				<text x="18.58" y="334.49" class="st24" v:langID="1033"><v:paragraph v:horizAlign="1"/><v:tabList/><v:newlineChar/><v:newlineChar/><v:newlineChar/>(4) Webpage + JavaScript <tspan
							x="30.82" dy="1.2em" class="st25">keylogger attached</tspan></text>			</g>
			<g id="shape26-102" v:mID="26" v:groupContext="shape" transform="translate(194.598,423.98) rotate(179.415)">
				<title>Simple Arrow.173</title>
				<desc>(1) Webpage request</desc>
				<v:userDefs>
					<v:ud v:nameU="visVersion" v:val="VT0(15):26"/>
					<v:ud v:nameU="ArrowType" v:prompt="" v:val="VT0(2):26"/>
				</v:userDefs>
				<v:textBlock v:margins="rect(4,4,4,4)" v:tabSpace="42.5197"/>
				<v:textRect cx="69.4524" cy="319.488" width="138.91" height="0" transform="rotate(180)"/>
				<path d="M0 319.49 L11.34 316.65 L11.34 318.07 L138.9 318.07 L138.9 319.49 L138.9 320.91 L11.34 320.91 L11.34 322.32
							 L0 319.49 Z" class="st23"/>
				<text x="-112.31" y="-328.49" transform="rotate(180)" class="st24" v:langID="1033"><v:paragraph v:horizAlign="1"/><v:tabList/>(1) Webpage request<v:newlineChar/><v:newlineChar/></text>			</g>
			<g id="shape27-105" v:mID="27" v:groupContext="shape" transform="translate(420.898,422.326) rotate(179.415)">
				<title>Simple Arrow.174</title>
				<desc>(2) Webpage request</desc>
				<v:userDefs>
					<v:ud v:nameU="visVersion" v:val="VT0(15):26"/>
					<v:ud v:nameU="ArrowType" v:prompt="" v:val="VT0(2):26"/>
				</v:userDefs>
				<v:textBlock v:margins="rect(4,4,4,4)" v:tabSpace="42.5197"/>
				<v:textRect cx="69.4524" cy="319.488" width="138.91" height="0" transform="rotate(180)"/>
				<path d="M0 319.49 L11.34 316.65 L11.34 318.07 L138.9 318.07 L138.9 319.49 L138.9 320.91 L11.34 320.91 L11.34 322.32
							 L0 319.49 Z" class="st23"/>
				<text x="-112.31" y="-328.49" transform="rotate(180)" class="st24" v:langID="1033"><v:paragraph v:horizAlign="1"/><v:tabList/>(2) Webpage request<v:newlineChar/><v:newlineChar/></text>			</g>
			<g id="shape28-108" v:mID="28" v:groupContext="shape" transform="translate(8.9367,531.756) rotate(-146.72)">
				<title>Simple Arrow</title>
				<desc>(5) Keystroke data</desc>
				<v:userDefs>
					<v:ud v:nameU="visVersion" v:val="VT0(15):26"/>
					<v:ud v:nameU="ArrowType" v:prompt="" v:val="VT0(2):26"/>
				</v:userDefs>
				<v:textBlock v:margins="rect(4,4,4,4)" v:tabSpace="42.5197"/>
				<v:textRect cx="84.7687" cy="319.488" width="169.54" height="0" transform="rotate(180)"/>
				<path d="M0 319.49 L12.36 316.93 L12.36 318.21 L169.54 318.21 L169.54 319.49 L169.54 320.77 L12.36 320.77 L12.36
							 322.04 L0 319.49 Z" class="st23"/>
				<text x="-121.81" y="-328.49" transform="rotate(180)" class="st24" v:langID="1033"><v:paragraph v:horizAlign="1"/><v:tabList/>(5) Keystroke data<v:newlineChar/><v:newlineChar/></text>			</g>
			<g id="group29-111" transform="translate(198.425,-5.68434E-014)" v:mID="29" v:groupContext="group">
				<v:custProps>
					<v:cp v:nameU="Manufacturer" v:lbl="Manufacturer" v:type="0" v:sortKey="Equipment" v:invis="false"
							v:ask="false" v:langID="1033"/>
					<v:cp v:nameU="ProductNumber" v:lbl="Product Number" v:type="0" v:sortKey="Equipment" v:invis="false"
							v:ask="false" v:langID="1033"/>
					<v:cp v:nameU="PartNumber" v:lbl="Part Number" v:type="0" v:sortKey="Equipment" v:invis="false" v:ask="false"
							v:langID="1033"/>
					<v:cp v:nameU="ProductDescription" v:lbl="Product Description" v:type="0" v:sortKey="Equipment" v:invis="false"
							v:ask="false" v:langID="1033"/>
					<v:cp v:nameU="AssetNumber" v:lbl="Asset Number" v:type="0" v:sortKey="Asset" v:invis="false" v:ask="false"
							v:langID="1033"/>
					<v:cp v:nameU="SerialNumber" v:lbl="Serial Number" v:type="0" v:sortKey="Asset" v:invis="false" v:ask="false"
							v:langID="1033"/>
					<v:cp v:nameU="Location" v:lbl="Location" v:type="0" v:sortKey="Asset" v:invis="false" v:ask="false"
							v:langID="1033"/>
					<v:cp v:nameU="Building" v:lbl="Building" v:type="0" v:sortKey="Asset" v:invis="false" v:ask="false"
							v:langID="1033"/>
					<v:cp v:nameU="Room" v:lbl="Room" v:type="0" v:sortKey="Asset" v:invis="false" v:ask="false" v:langID="1033"/>
					<v:cp v:nameU="Department" v:lbl="Department" v:type="0" v:invis="false" v:ask="false" v:langID="1033"/>
					<v:cp v:nameU="NetworkName" v:lbl="Network Name" v:type="0" v:sortKey="Network" v:invis="false" v:ask="false"
							v:langID="1033"/>
					<v:cp v:nameU="IPAddress" v:lbl="IP Address" v:type="0" v:sortKey="Network" v:invis="false" v:ask="false"
							v:langID="1033"/>
					<v:cp v:nameU="SubnetMask" v:lbl="Subnet Mask" v:type="0" v:sortKey="Network" v:invis="false" v:ask="false"
							v:langID="1033"/>
					<v:cp v:nameU="AdminInterface" v:lbl="Administrative Interface" v:type="0" v:sortKey="Network" v:invis="false"
							v:ask="false" v:langID="1033"/>
					<v:cp v:nameU="NumberofPorts" v:lbl="Number of Ports" v:type="0" v:sortKey="Network" v:invis="false"
							v:ask="false" v:langID="1033"/>
					<v:cp v:nameU="CommunityString" v:lbl="Community String" v:type="0" v:sortKey="Network" v:invis="false"
							v:ask="false" v:langID="1033"/>
					<v:cp v:nameU="NetworkDescription" v:lbl="Network Description" v:type="0" v:sortKey="Network" v:invis="false"
							v:ask="false" v:langID="1033"/>
					<v:cp v:nameU="CPU" v:lbl="CPU" v:type="0" v:sortKey="Workstation" v:invis="false" v:ask="false"
							v:langID="1033"/>
					<v:cp v:nameU="Memory" v:lbl="Memory" v:type="0" v:sortKey="Workstation" v:invis="false" v:ask="false"
							v:langID="1033"/>
					<v:cp v:nameU="OperatingSystem" v:lbl="Operating System" v:type="0" v:sortKey="Workstation" v:invis="false"
							v:ask="false" v:langID="1033"/>
					<v:cp v:nameU="BelongsTo" v:lbl="Belongs To" v:type="0" v:invis="true" v:ask="false" v:langID="1033"/>
					<v:cp v:nameU="ShapeClass" v:lbl="ShapeClass" v:type="0" v:invis="true" v:ask="false" v:langID="1033"
							v:val="VT4(Equipment)"/>
					<v:cp v:nameU="ShapeType" v:lbl="ShapeType" v:type="0" v:invis="true" v:ask="false" v:langID="1033"
							v:val="VT4(Server)"/>
					<v:cp v:nameU="MACAddress" v:lbl="MAC Address" v:type="0" v:sortKey="Network" v:invis="false" v:ask="false"
							v:langID="1033"/>
					<v:cp v:nameU="HardDriveSize" v:lbl="Hard Drive Capacity" v:type="0" v:sortKey="Workstation" v:invis="false"
							v:ask="false" v:langID="1033"/>
				</v:custProps>
				<v:userDefs>
					<v:ud v:nameU="HasText" v:val="VT0(0):5"/>
					<v:ud v:nameU="ShapeClass" v:val="VT0(5):26"/>
					<v:ud v:nameU="ShapeType" v:val="VT0(24):26"/>
					<v:ud v:nameU="SolSH" v:val="VT15({BF0433D9-CD73-4EB5-8390-8653BE590246}):41"/>
					<v:ud v:nameU="visLegendShape" v:val="VT0(2):26"/>
					<v:ud v:nameU="visVersion" v:prompt="" v:val="VT0(15):26"/>
					<v:ud v:nameU="HasText" v:prompt="" v:val="VT0(1):5"/>
				</v:userDefs>
				<title>Server.184</title>
				<desc>Webservice</desc>
				<g id="shape30-112" v:mID="30" v:groupContext="shape">
					<title>Sheet.30</title>
					<path d="M68.74 238.17 L42.3 224.02 L0 247.06 L0.02 306.25 A44.508 41.5646 -180 0 0 26.1 319.49 L68.74 296.44
								 L68.74 238.17 ZM11.74 256.28 A45.9332 42.8955 -180 0 0 26.1 261.38 A45.4202 42.4164 0 0 1 11.74
								 256.28 Z" class="st1"/>
				</g>
				<g id="shape31-114" v:mID="31" v:groupContext="shape" transform="translate(0,-58.105)">
					<title>Sheet.31</title>
					<path d="M26.09 319.49 L68.74 296.28 L42.3 282.12 L0 305.17 A45.9332 42.8955 -180 0 0 26.1 319.49 L26.09 319.49
								 Z" class="st2"/>
					<path d="M26.09 319.49 L68.74 296.28 L42.3 282.12 L0 305.17 A45.9332 42.8955 -180 0 0 26.1 319.49" class="st3"/>
				</g>
				<g id="shape32-118" v:mID="32" v:groupContext="shape" transform="translate(0.0156193,-4.54747E-013)">
					<title>Sheet.32</title>
					<path d="M26.09 261.38 A45.4202 42.4164 0 0 1 0 247 L0 306.25 A44.508 41.5646 -180 0 0 26.09 319.49 L26.07 261.38
								 L26.09 261.38 Z" class="st4"/>
					<path d="M26.09 261.38 A45.4202 42.4164 0 0 1 0 247 L0 306.25 A44.508 41.5646 -180 0 0 26.09 319.49 L26.07 261.38"
							class="st5"/>
				</g>
				<g id="shape33-122" v:mID="33" v:groupContext="shape" transform="translate(26.086,-0.0656713)">
					<title>Sheet.33</title>
					<path d="M0 261.45 L0 319.49 L42.65 296.51 L42.65 238.24 L0 261.45 Z" class="st6"/>
				</g>
				<g id="shape34-125" v:mID="34" v:groupContext="shape" transform="translate(0,-0.00210454)">
					<title>Sheet.34</title>
					<path d="M68.74 238.17 L42.3 224.02 L0 247.06 L0.02 306.25 A44.508 41.5646 -180 0 0 26.1 319.49 L68.74 296.44
								 L68.74 238.17" class="st7"/>
				</g>
				<g id="shape35-128" v:mID="35" v:groupContext="shape" transform="translate(-98.2142,-11.4239) rotate(-20)">
					<title>Sheet.35</title>
					<ellipse cx="1.99671" cy="316.769" rx="1.99671" ry="2.7189" class="st8"/>
				</g>
				<g id="shape36-131" v:mID="36" v:groupContext="shape" transform="translate(4.23016,-8.39672)">
					<title>Sheet.36</title>
					<path d="M-0 303.36 A50.9526 46.5366 -96.44 0 0 17.63 312.41" class="st9"/>
					<path d="M0 306.9 A50.9526 46.5366 -96.44 0 0 17.63 315.95" class="st9"/>
					<path d="M0 310.44 A50.9526 46.5366 -96.44 0 0 17.63 319.49" class="st9"/>
				</g>
				<g id="group37-137" transform="translate(3.52514,-41.1522)" v:mID="37" v:groupContext="group">
					<title>Sheet.37</title>
					<g id="shape38-138" v:mID="38" v:groupContext="shape" transform="translate(0,-9.52433)">
						<title>Sheet.38</title>
						<path d="M0.63 310.44 A44.4558 41.5158 -180 0 0 18.25 319.49 a0.903316 0.843577 -180 0 0 3.55271E-015 -1.646
									 A43.2463 40.3863 0 0 1 0.98 309.05 a0.585216 0.546513 -180 0 0 -0.977009 0.464601 A1.27545 1.1911
									 -180 0 0 0.63 310.44 Z" class="st10"/>
					</g>
					<g id="shape39-140" v:mID="39" v:groupContext="shape" transform="translate(5.60554,-11.5991)">
						<title>Sheet.39</title>
						<path d="M5.42 319.42 A6.60555 4.0212 -90.9 0 0 0.13 316.79 A4.34612 2.16683 -180 0 0 5.42 319.42 Z"
								class="st11"/>
					</g>
					<g id="shape40-143" v:mID="40" v:groupContext="shape" transform="translate(0.705027,-0.0823002)">
						<title>Sheet.40</title>
						<path d="M0 305.83 L0 310.44 A47.821 44.6584 -180 0 0 17.63 319.49 L17.63 314.88 A49.3861 46.12 0 0 1 0 305.83
									 Z" class="st12"/>
					</g>
					<g id="shape41-146" v:mID="41" v:groupContext="shape" transform="translate(0.705027,-2.63361)">
						<title>Sheet.41</title>
						<path d="M-0 310.44 A43.2834 40.4209 -180 0 0 17.63 319.49 L17.63 318.34 A47.8402 44.6764 0 0 1 -0 309.28
									 L0 310.44 Z" class="st13"/>
					</g>
					<g id="shape42-148" v:mID="42" v:groupContext="shape" transform="translate(0.705027,-0.1646)">
						<title>Sheet.42</title>
						<path d="M0 305.83 L0 310.44 A47.821 44.6584 -180 0 0 17.63 319.49" class="st3"/>
					</g>
					<g id="shape43-151" v:mID="43" v:groupContext="shape" transform="translate(0.705027,1.13687E-013)">
						<title>Sheet.43</title>
						<path d="M17.63 319.49 L17.63 314.88 A49.3861 46.12 0 0 1 0 305.83" class="st14"/>
					</g>
				</g>
				<g id="shape29-155" v:mID="29" v:groupContext="groupContent">
					<v:textBlock v:margins="rect(4,4,4,4)" v:tabSpace="42.5197"/>
					<v:textRect cx="34.3701" cy="330.69" width="67.74" height="22.4037"/>
					<text x="5.86" y="334.29" class="st15" v:langID="1033"><v:paragraph v:horizAlign="1"/><v:tabList/>Webservice</text>				</g>
			</g>
			<g id="group44-157" transform="translate(198.425,-164.862)" v:mID="44" v:groupContext="group">
				<v:custProps>
					<v:cp v:nameU="Manufacturer" v:lbl="Manufacturer" v:type="0" v:sortKey="Equipment" v:invis="false"
							v:ask="false" v:langID="1033"/>
					<v:cp v:nameU="ProductNumber" v:lbl="Product Number" v:type="0" v:sortKey="Equipment" v:invis="false"
							v:ask="false" v:langID="1033"/>
					<v:cp v:nameU="PartNumber" v:lbl="Part Number" v:type="0" v:sortKey="Equipment" v:invis="false" v:ask="false"
							v:langID="1033"/>
					<v:cp v:nameU="ProductDescription" v:lbl="Product Description" v:type="0" v:sortKey="Equipment" v:invis="false"
							v:ask="false" v:langID="1033"/>
					<v:cp v:nameU="AssetNumber" v:lbl="Asset Number" v:type="0" v:sortKey="Asset" v:invis="false" v:ask="false"
							v:langID="1033"/>
					<v:cp v:nameU="SerialNumber" v:lbl="Serial Number" v:type="0" v:sortKey="Asset" v:invis="false" v:ask="false"
							v:langID="1033"/>
					<v:cp v:nameU="Location" v:lbl="Location" v:type="0" v:sortKey="Asset" v:invis="false" v:ask="false"
							v:langID="1033"/>
					<v:cp v:nameU="Building" v:lbl="Building" v:type="0" v:sortKey="Asset" v:invis="false" v:ask="false"
							v:langID="1033"/>
					<v:cp v:nameU="Room" v:lbl="Room" v:type="0" v:sortKey="Asset" v:invis="false" v:ask="false" v:langID="1033"/>
					<v:cp v:nameU="Department" v:lbl="Department" v:type="0" v:invis="false" v:ask="false" v:langID="1033"/>
					<v:cp v:nameU="NetworkName" v:lbl="Network Name" v:type="0" v:sortKey="Network" v:invis="false" v:ask="false"
							v:langID="1033"/>
					<v:cp v:nameU="IPAddress" v:lbl="IP Address" v:type="0" v:sortKey="Network" v:invis="false" v:ask="false"
							v:langID="1033"/>
					<v:cp v:nameU="SubnetMask" v:lbl="Subnet Mask" v:type="0" v:sortKey="Network" v:invis="false" v:ask="false"
							v:langID="1033"/>
					<v:cp v:nameU="AdminInterface" v:lbl="Administrative Interface" v:type="0" v:sortKey="Network" v:invis="false"
							v:ask="false" v:langID="1033"/>
					<v:cp v:nameU="NumberofPorts" v:lbl="Number of Ports" v:type="0" v:sortKey="Network" v:invis="false"
							v:ask="false" v:langID="1033"/>
					<v:cp v:nameU="CommunityString" v:lbl="Community String" v:type="0" v:sortKey="Network" v:invis="false"
							v:ask="false" v:langID="1033"/>
					<v:cp v:nameU="NetworkDescription" v:lbl="Network Description" v:type="0" v:sortKey="Network" v:invis="false"
							v:ask="false" v:langID="1033"/>
					<v:cp v:nameU="CPU" v:lbl="CPU" v:type="0" v:sortKey="Workstation" v:invis="false" v:ask="false"
							v:langID="1033"/>
					<v:cp v:nameU="Memory" v:lbl="Memory" v:type="0" v:sortKey="Workstation" v:invis="false" v:ask="false"
							v:langID="1033"/>
					<v:cp v:nameU="OperatingSystem" v:lbl="Operating System" v:type="0" v:sortKey="Workstation" v:invis="false"
							v:ask="false" v:langID="1033"/>
					<v:cp v:nameU="BelongsTo" v:lbl="Belongs To" v:type="0" v:invis="true" v:ask="false" v:langID="1033"/>
					<v:cp v:nameU="ShapeClass" v:lbl="ShapeClass" v:type="0" v:invis="true" v:ask="false" v:langID="1033"
							v:val="VT4(Equipment)"/>
					<v:cp v:nameU="ShapeType" v:lbl="ShapeType" v:type="0" v:invis="true" v:ask="false" v:langID="1033"
							v:val="VT4(Server)"/>
					<v:cp v:nameU="MACAddress" v:lbl="MAC Address" v:type="0" v:sortKey="Network" v:invis="false" v:ask="false"
							v:langID="1033"/>
					<v:cp v:nameU="HardDriveSize" v:lbl="Hard Drive Capacity" v:type="0" v:sortKey="Workstation" v:invis="false"
							v:ask="false" v:langID="1033"/>
				</v:custProps>
				<v:userDefs>
					<v:ud v:nameU="HasText" v:val="VT0(0):5"/>
					<v:ud v:nameU="ShapeClass" v:val="VT0(5):26"/>
					<v:ud v:nameU="ShapeType" v:val="VT0(24):26"/>
					<v:ud v:nameU="SolSH" v:val="VT15({BF0433D9-CD73-4EB5-8390-8653BE590246}):41"/>
					<v:ud v:nameU="visLegendShape" v:val="VT0(2):26"/>
					<v:ud v:nameU="visVersion" v:prompt="" v:val="VT0(15):26"/>
					<v:ud v:nameU="HasText" v:prompt="" v:val="VT0(1):5"/>
				</v:userDefs>
				<title>Server.214</title>
				<desc>ProxyServer (Owned by hacker)</desc>
				<g id="shape45-158" v:mID="45" v:groupContext="shape">
					<title>Sheet.45</title>
					<path d="M68.74 238.17 L42.3 224.02 L0 247.06 L0.02 306.25 A44.508 41.5646 -180 0 0 26.1 319.49 L68.74 296.44
								 L68.74 238.17 ZM11.74 256.28 A45.9332 42.8955 -180 0 0 26.1 261.38 A45.4202 42.4164 0 0 1 11.74
								 256.28 Z" class="st1"/>
				</g>
				<g id="shape46-160" v:mID="46" v:groupContext="shape" transform="translate(0,-58.105)">
					<title>Sheet.46</title>
					<path d="M26.09 319.49 L68.74 296.28 L42.3 282.12 L0 305.17 A45.9332 42.8955 -180 0 0 26.1 319.49 L26.09 319.49
								 Z" class="st2"/>
					<path d="M26.09 319.49 L68.74 296.28 L42.3 282.12 L0 305.17 A45.9332 42.8955 -180 0 0 26.1 319.49" class="st3"/>
				</g>
				<g id="shape47-164" v:mID="47" v:groupContext="shape" transform="translate(0.0156193,-4.54747E-013)">
					<title>Sheet.47</title>
					<path d="M26.09 261.38 A45.4202 42.4164 0 0 1 0 247 L0 306.25 A44.508 41.5646 -180 0 0 26.09 319.49 L26.07 261.38
								 L26.09 261.38 Z" class="st4"/>
					<path d="M26.09 261.38 A45.4202 42.4164 0 0 1 0 247 L0 306.25 A44.508 41.5646 -180 0 0 26.09 319.49 L26.07 261.38"
							class="st5"/>
				</g>
				<g id="shape48-168" v:mID="48" v:groupContext="shape" transform="translate(26.086,-0.0656713)">
					<title>Sheet.48</title>
					<path d="M0 261.45 L0 319.49 L42.65 296.51 L42.65 238.24 L0 261.45 Z" class="st6"/>
				</g>
				<g id="shape49-171" v:mID="49" v:groupContext="shape" transform="translate(0,-0.00210454)">
					<title>Sheet.49</title>
					<path d="M68.74 238.17 L42.3 224.02 L0 247.06 L0.02 306.25 A44.508 41.5646 -180 0 0 26.1 319.49 L68.74 296.44
								 L68.74 238.17" class="st7"/>
				</g>
				<g id="shape50-174" v:mID="50" v:groupContext="shape" transform="translate(-98.2142,-11.4239) rotate(-20)">
					<title>Sheet.50</title>
					<ellipse cx="1.99671" cy="316.769" rx="1.99671" ry="2.7189" class="st8"/>
				</g>
				<g id="shape51-177" v:mID="51" v:groupContext="shape" transform="translate(4.23016,-8.39672)">
					<title>Sheet.51</title>
					<path d="M0 303.36 A50.9526 46.5366 -96.44 0 0 17.63 312.41" class="st9"/>
					<path d="M0 306.9 A50.9526 46.5366 -96.44 0 0 17.63 315.95" class="st9"/>
					<path d="M0 310.44 A50.9526 46.5366 -96.44 0 0 17.63 319.49" class="st9"/>
				</g>
				<g id="group52-183" transform="translate(3.52514,-41.1522)" v:mID="52" v:groupContext="group">
					<title>Sheet.52</title>
					<g id="shape53-184" v:mID="53" v:groupContext="shape" transform="translate(0,-9.52433)">
						<title>Sheet.53</title>
						<path d="M0.63 310.44 A44.4558 41.5158 -180 0 0 18.25 319.49 a0.903316 0.843577 -180 0 0 -3.55271E-015 -1.646
									 A43.2463 40.3863 0 0 1 0.98 309.05 a0.585216 0.546513 -180 0 0 -0.977009 0.464601 A1.27545 1.1911
									 -180 0 0 0.63 310.44 Z" class="st10"/>
					</g>
					<g id="shape54-186" v:mID="54" v:groupContext="shape" transform="translate(5.60554,-11.5991)">
						<title>Sheet.54</title>
						<path d="M5.42 319.42 A6.60555 4.0212 -90.9 0 0 0.13 316.79 A4.34612 2.16683 -180 0 0 5.42 319.42 Z"
								class="st11"/>
					</g>
					<g id="shape55-189" v:mID="55" v:groupContext="shape" transform="translate(0.705027,-0.0823002)">
						<title>Sheet.55</title>
						<path d="M0 305.83 L0 310.44 A47.821 44.6584 -180 0 0 17.63 319.49 L17.63 314.88 A49.3861 46.12 0 0 1 0 305.83
									 Z" class="st12"/>
					</g>
					<g id="shape56-192" v:mID="56" v:groupContext="shape" transform="translate(0.705027,-2.63361)">
						<title>Sheet.56</title>
						<path d="M-0 310.44 A43.2834 40.4209 -180 0 0 17.63 319.49 L17.63 318.34 A47.8402 44.6764 0 0 1 0 309.28
									 L0 310.44 Z" class="st13"/>
					</g>
					<g id="shape57-194" v:mID="57" v:groupContext="shape" transform="translate(0.705027,-0.1646)">
						<title>Sheet.57</title>
						<path d="M0 305.83 L0 310.44 A47.821 44.6584 -180 0 0 17.63 319.49" class="st3"/>
					</g>
					<g id="shape58-197" v:mID="58" v:groupContext="shape" transform="translate(0.705027,1.13687E-013)">
						<title>Sheet.58</title>
						<path d="M17.63 319.49 L17.63 314.88 A49.3861 46.12 0 0 1 0 305.83" class="st14"/>
					</g>
				</g>
				<g id="shape44-201" v:mID="44" v:groupContext="groupContent">
					<v:textBlock v:margins="rect(4,4,4,4)" v:tabSpace="42.5197"/>
					<v:textRect cx="34.3701" cy="337.89" width="103" height="36.8038"/>
					<text x="5.08" y="334.29" class="st15" v:langID="1033"><v:paragraph v:horizAlign="1"/><v:tabList/>ProxyServer<v:newlineChar/><tspan
								x="-11.77" dy="1.2em" class="st25">(</tspan>Owned by hacker)</text>				</g>
			</g>
			<g id="group59-204" transform="translate(438.307,-19.3898)" v:mID="59" v:groupContext="group">
				<v:custProps>
					<v:cp v:nameU="Name" v:lbl="Name" v:type="0" v:invis="false" v:ask="false" v:langID="1033"/>
					<v:cp v:nameU="Location" v:lbl="Location" v:type="0" v:invis="false" v:ask="false" v:langID="1033"/>
					<v:cp v:nameU="Building" v:lbl="Building" v:type="0" v:invis="false" v:ask="false" v:langID="1033"/>
					<v:cp v:nameU="Room" v:lbl="Room" v:type="0" v:invis="false" v:ask="false" v:langID="1033"/>
					<v:cp v:nameU="Department" v:lbl="Department" v:type="0" v:invis="false" v:ask="false" v:langID="1033"/>
					<v:cp v:nameU="ShapeClass" v:lbl="ShapeClass" v:type="0" v:invis="true" v:ask="false" v:langID="1033"
							v:val="VT4(Connectivity)"/>
					<v:cp v:nameU="ShapeType" v:lbl="ShapeType" v:type="0" v:invis="true" v:ask="false" v:langID="1033"
							v:val="VT4(User)"/>
				</v:custProps>
				<v:userDefs>
					<v:ud v:nameU="HasText" v:val="VT0(0):5"/>
					<v:ud v:nameU="ShapeClass" v:val="VT0(4):26"/>
					<v:ud v:nameU="ShapeType" v:val="VT0(4):26"/>
					<v:ud v:nameU="SolSH" v:val="VT15({BF0433D9-CD73-4EB5-8390-8653BE590246}):41"/>
					<v:ud v:nameU="visLegendShape" v:val="VT0(2):26"/>
					<v:ud v:nameU="visVersion" v:prompt="" v:val="VT0(15):26"/>
					<v:ud v:nameU="HasText" v:prompt="" v:val="VT0(1):5"/>
				</v:userDefs>
				<title>User.229</title>
				<desc>Hacker</desc>
				<g id="shape60-205" v:mID="60" v:groupContext="shape" transform="translate(-4.60905,0)">
					<title>Sheet.60</title>
					<path d="M11.66 282.58 A19.0671 18.6615 -180 0 0 -0 298.9 L0.06 306.55 A6.49779 6.35958 -180 0 0 2.49 311.6 A2.50228
								 2.44905 -180 0 0 5.27 312.05 A3.34855 3.27733 -180 0 0 6.87 314.53 A45.299 44.3354 -180 0 0 28.24
								 319.48 A14.6407 14.3293 -180 0 0 35.12 317.69 A2.37367 2.32318 -180 0 0 37.88 318.14 A9.81186 9.60315
								 -180 0 0 42.49 313.41 L42.49 299.91 A18.6915 18.2939 -180 0 0 30.86 283.92 L30.75 283.91 A12.641
								 12.3721 -180 1 0 11.69 282.58 L11.66 282.58 Z" class="st16"/>
					<path d="M11.66 282.58 A19.0671 18.6615 -180 0 0 -0 298.9 L0.06 306.55 A6.49779 6.35958 -180 0 0 2.49 311.6 A2.50228
								 2.44905 -180 0 0 5.27 312.05 A3.34855 3.27733 -180 0 0 6.87 314.53 A45.299 44.3354 -180 0 0 28.24
								 319.48 A14.6407 14.3293 -180 0 0 35.12 317.69 A2.37367 2.32318 -180 0 0 37.88 318.14 A9.81186 9.60315
								 -180 0 0 42.49 313.41 L42.49 299.91 A18.6915 18.2939 -180 0 0 30.86 283.92 L30.75 283.91 A12.641
								 12.3721 -180 1 0 11.69 282.58" class="st17"/>
				</g>
				<g id="shape61-208" v:mID="61" v:groupContext="shape" transform="translate(0.0287731,-5.68434E-013)">
					<title>Sheet.61</title>
					<path d="M6.87 314.53 A45.299 44.3354 -180 0 0 28.24 319.48 A14.6407 14.3293 -180 0 0 35.12 317.69 A2.37367 2.32318
								 -180 0 0 37.88 318.14 A9.81186 9.60315 -180 0 0 42.49 313.41 L42.49 299.91 A18.6915 18.2939 -180
								 0 0 30.86 283.92 L11.66 282.58 A19.0671 18.6615 -180 0 0 -0 298.9 L0.06 306.55 A6.49779 6.35958
								 -180 0 0 2.49 311.6 A2.50228 2.44905 -180 0 0 5.27 312.05 A3.34855 3.27733 -180 0 0 6.87 314.53
								 Z" class="st18"/>
					<path d="M6.87 314.53 A45.299 44.3354 -180 0 0 28.24 319.48 A14.6407 14.3293 -180 0 0 35.12 317.69 A2.37367 2.32318
								 -180 0 0 37.88 318.14 A9.81186 9.60315 -180 0 0 42.49 313.41 L42.49 299.91 A18.6915 18.2939 -180
								 0 0 30.86 283.92M11.66 282.58 A19.0671 18.6615 -180 0 0 -0 298.9 L0.06 306.55 A6.49779 6.35958 -180
								 0 0 2.49 311.6 A2.50228 2.44905 -180 0 0 5.27 312.05 A3.34855 3.27733 -180 0 0 6.87 314.53"
							class="st19"/>
				</g>
				<g id="shape62-212" v:mID="62" v:groupContext="shape" transform="translate(9.19345,-31.9487)">
					<title>Sheet.62</title>
					<ellipse cx="12.641" cy="307.116" rx="12.641" ry="12.3721" class="st20"/>
				</g>
				<g id="shape63-215" v:mID="63" v:groupContext="shape" transform="translate(-309.848,259.553) rotate(-80.5423)">
					<title>Sheet.63</title>
					<path d="M-0 319.49 A43.8253 55.1945 0 0 1 23.71 319.49" class="st21"/>
				</g>
				<g id="shape64-219" v:mID="64" v:groupContext="shape" transform="translate(-282.308,341.315) rotate(-94.2553)">
					<title>Sheet.64</title>
					<path d="M-0 318.34 A84.7366 106.767 -180 0 0 24.82 318.34" class="st21"/>
				</g>
				<g id="shape65-223" v:mID="65" v:groupContext="shape" transform="translate(11.7216,-32.1571)">
					<title>Sheet.65</title>
					<path d="M0 314.53 A12.6648 12.3954 -180 0 0 19.09 315.86" class="st21"/>
				</g>
				<g id="shape66-227" v:mID="66" v:groupContext="shape" transform="translate(0.0287731,0)">
					<title>Sheet.66</title>
					<path d="M11.66 282.58 A19.4535 19.0397 -180 0 0 -0 298.91 L0.06 306.55 A6.49779 6.35958 -180 0 0 2.49 311.6
								 A2.50228 2.44905 -180 0 0 5.27 312.05 A3.34855 3.27733 -180 0 0 6.87 314.53 A45.299 44.3354 -180
								 0 0 28.24 319.48 A14.6407 14.3293 -180 0 0 35.12 317.69 A2.37367 2.32318 -180 0 0 37.88 318.14 A9.81186
								 9.60315 -180 0 0 42.49 313.41 L42.49 301.17 A18.5051 18.1115 -180 0 0 30.86 283.92 L30.75 283.91
								 A12.646 12.377 -180 1 0 11.66 282.58" class="st22"/>
				</g>
				<g id="shape59-230" v:mID="59" v:groupContext="groupContent">
					<v:textBlock v:margins="rect(4,4,4,4)" v:tabSpace="42.5197"/>
					<v:textRect cx="21.2598" cy="330.69" width="44.63" height="22.4037"/>
					<text x="4.31" y="334.29" class="st15" v:langID="1033"><v:paragraph v:horizAlign="1"/><v:tabList/>Hacker</text>				</g>
			</g>
			<g id="shape67-232" v:mID="67" v:groupContext="shape" transform="translate(430.748,594.192) rotate(-179.313)">
				<title>Simple Arrow.237</title>
				<desc>(6) Keystroke data</desc>
				<v:userDefs>
					<v:ud v:nameU="visVersion" v:val="VT0(15):26"/>
					<v:ud v:nameU="ArrowType" v:prompt="" v:val="VT0(2):26"/>
				</v:userDefs>
				<v:textBlock v:margins="rect(4,4,4,4)" v:tabSpace="42.5197"/>
				<v:textRect cx="79.813" cy="319.488" width="159.63" height="0" transform="rotate(180)"/>
				<path d="M0 319.49 L12.36 316.93 L12.36 318.21 L159.63 318.21 L159.63 319.49 L159.63 320.77 L12.36 320.77 L12.36
							 322.04 L0 319.49 Z" class="st23"/>
				<text x="-116.85" y="-328.49" transform="rotate(180)" class="st24" v:langID="1033"><v:paragraph v:horizAlign="1"/><v:tabList/>(6) Keystroke data<v:newlineChar/><v:newlineChar/></text>			</g>
		</g>
	</g>
</svg>
